<svg xmlns="http://www.w3.org/2000/svg" xmlns:xlink="http://www.w3.org/1999/xlink" width="3000" zoomAndPan="magnify" viewBox="0 0 2250 2250.000011" height="3000" preserveAspectRatio="xMidYMid meet" version="1.0"><defs><g/><clipPath id="bcf24dd271"><path d="M 2012 1176 L 2111.730469 1176 L 2111.730469 1413 L 2012 1413 Z M 2012 1176 " clip-rule="nonzero"/></clipPath><clipPath id="d9bf683628"><path d="M 192 945.257812 L 1071.871094 945.257812 L 1071.871094 1419.046875 L 192 1419.046875 Z M 192 945.257812 " clip-rule="nonzero"/></clipPath></defs><path fill="#ffffff" d="M 1297.652344 1412.738281 L 1255.6875 1412.738281 L 1255.6875 1304.765625 C 1255.304688 1279.582031 1234.707031 1258.992188 1209.523438 1258.992188 C 1184.339844 1258.992188 1163.753906 1279.589844 1163.753906 1304.765625 L 1163.753906 1412.738281 L 1121.785156 1412.738281 L 1121.785156 1305.15625 C 1121.785156 1257.472656 1160.316406 1217.027344 1209.152344 1217.027344 C 1257.988281 1217.027344 1297.664062 1256.699219 1297.664062 1305.15625 L 1297.664062 1412.738281 Z M 1297.652344 1412.738281 " fill-opacity="1" fill-rule="nonzero"/><path fill="#ffffff" d="M 1511.699219 1412.738281 L 1469.734375 1412.738281 L 1469.734375 1304.765625 C 1469.351562 1279.582031 1448.753906 1258.992188 1423.570312 1258.992188 C 1398.386719 1258.992188 1377.78125 1279.589844 1377.78125 1304.765625 L 1377.78125 1412.738281 L 1335.824219 1412.738281 L 1335.824219 1305.15625 C 1335.824219 1257.472656 1374.355469 1217.027344 1423.191406 1217.027344 C 1472.027344 1217.027344 1511.699219 1256.699219 1511.699219 1305.15625 Z M 1511.699219 1412.738281 " fill-opacity="1" fill-rule="nonzero"/><path fill="#ffffff" d="M 1974.515625 1347.113281 C 1974.136719 1347.875 1974.136719 1348.253906 1973.753906 1349.023438 C 1960.027344 1386.40625 1925.300781 1410.4375 1885.625 1412.730469 L 1878.375 1412.730469 C 1874.953125 1412.351562 1871.507812 1412.351562 1868.453125 1411.589844 C 1824.964844 1405.871094 1786.8125 1367.71875 1784.53125 1323.082031 C 1784.148438 1319.644531 1784.148438 1316.210938 1784.148438 1313.15625 C 1784.148438 1305.144531 1785.292969 1296.753906 1787.574219 1289.125 C 1798.640625 1247.546875 1836.03125 1218.550781 1879.136719 1217.019531 C 1879.898438 1217.019531 1880.667969 1217.019531 1881.429688 1216.636719 L 1882.960938 1216.636719 C 1886.769531 1217.019531 1890.59375 1217.019531 1894.019531 1217.398438 C 1931.796875 1224.269531 1960.40625 1245.246094 1974.515625 1282.253906 L 1927.59375 1282.253906 C 1917.667969 1268.144531 1900.886719 1258.605469 1882.199219 1258.605469 C 1851.289062 1258.605469 1826.117188 1283.789062 1826.117188 1314.6875 C 1826.117188 1345.589844 1851.28125 1370.382812 1881.8125 1370.773438 C 1900.496094 1370.773438 1917.667969 1361.613281 1927.59375 1347.121094 L 1974.515625 1347.121094 Z M 1974.515625 1347.113281 " fill-opacity="1" fill-rule="nonzero"/><g clip-path="url(#bcf24dd271)"><path fill="#ffffff" d="M 2012.703125 1259.375 L 2012.703125 1217.40625 L 2040.933594 1217.40625 L 2040.933594 1176.964844 L 2082.898438 1176.964844 L 2082.898438 1217.40625 L 2111.136719 1217.40625 L 2111.136719 1259.375 L 2082.898438 1259.375 L 2082.898438 1344.058594 C 2082.898438 1358.949219 2094.734375 1370.765625 2109.605469 1370.765625 L 2109.605469 1412.730469 C 2072.203125 1412.730469 2040.921875 1382.589844 2040.921875 1344.820312 L 2040.921875 1259.363281 L 2012.695312 1259.363281 Z M 2012.703125 1259.375 " fill-opacity="1" fill-rule="nonzero"/></g><path fill="#ffffff" d="M 1745.597656 1312.394531 L 1745.597656 1318.511719 C 1745.597656 1321.175781 1745.21875 1323.46875 1745.21875 1326.144531 C 1744.839844 1329.570312 1744.078125 1332.621094 1743.308594 1335.667969 L 1596.039062 1335.667969 C 1602.519531 1352.839844 1621.222656 1370.382812 1647.167969 1370.773438 C 1664.722656 1370.773438 1678.832031 1363.144531 1688.753906 1353.21875 L 1737.96875 1353.21875 C 1723.460938 1387.558594 1687.613281 1412.738281 1650.210938 1412.738281 L 1645.253906 1412.738281 C 1642.964844 1412.738281 1641.429688 1412.359375 1639.539062 1412.359375 C 1635.332031 1411.980469 1630.765625 1411.21875 1626.179688 1410.449219 C 1584.976562 1400.523438 1552.550781 1365.054688 1550.265625 1321.9375 C 1550.265625 1320.027344 1550.265625 1318.511719 1549.886719 1316.980469 L 1549.886719 1311.253906 C 1550.265625 1309.359375 1550.265625 1307.828125 1550.265625 1305.917969 C 1550.648438 1301.730469 1551.398438 1297.523438 1552.160156 1292.949219 C 1562.84375 1249.832031 1600.617188 1217.027344 1645.636719 1217.027344 C 1646.398438 1216.648438 1647.167969 1217.027344 1647.546875 1216.648438 L 1647.929688 1216.648438 C 1648.691406 1217.027344 1649.441406 1216.648438 1650.210938 1217.027344 C 1692.558594 1217.027344 1731.472656 1247.929688 1742.15625 1288.753906 C 1743.6875 1293.339844 1744.449219 1297.914062 1745.210938 1302.863281 C 1745.210938 1305.15625 1745.589844 1307.066406 1745.589844 1309.359375 L 1745.589844 1312.40625 Z M 1699.429688 1292.949219 C 1690.65625 1271.960938 1670.4375 1258.992188 1647.546875 1258.992188 C 1642.960938 1258.992188 1638.777344 1258.992188 1634.191406 1260.515625 C 1618.167969 1264.710938 1605.960938 1274.253906 1597.953125 1289.132812 C 1597.570312 1290.277344 1596.808594 1291.808594 1596.039062 1292.957031 C 1596.039062 1293.464844 1596.292969 1293.71875 1596.800781 1293.71875 L 1699.039062 1293.71875 C 1699.546875 1293.71875 1699.671875 1293.464844 1699.417969 1292.957031 Z M 1699.429688 1292.949219 " fill-opacity="1" fill-rule="nonzero"/><g fill="#ffffff" fill-opacity="1"><g transform="translate(617.291608, 1033.994566)"><g><path d="M 137.984375 5.75 C 207.421875 5.75 256.070312 -41.574219 256.070312 -111.890625 C 256.070312 -187.078125 199.902344 -224.226562 148.601562 -224.226562 C 119.851562 -224.226562 95.96875 -212.726562 81.375 -190.613281 L 81.375 -314.003906 L 21.671875 -314.003906 L 21.671875 -111.449219 C 21.671875 -38.917969 70.320312 5.75 137.984375 5.75 Z M 138.425781 -49.976562 C 104.375 -49.976562 81.375 -74.300781 81.375 -109.238281 C 81.375 -144.175781 104.375 -168.5 138.425781 -168.5 C 172.480469 -168.5 195.480469 -144.175781 195.480469 -109.238281 C 195.480469 -74.300781 172.480469 -49.976562 138.425781 -49.976562 Z M 138.425781 -49.976562 "/></g></g></g><g fill="#ffffff" fill-opacity="1"><g transform="translate(886.18578, 1033.994566)"><g><path d="M 129.582031 5.75 C 194.152344 5.75 237.492188 -31.84375 237.492188 -105.257812 L 237.492188 -218.476562 L 177.789062 -218.476562 L 177.789062 -105.257812 C 177.789062 -67.222656 158.328125 -49.976562 129.582031 -49.976562 C 100.835938 -49.976562 81.375 -67.222656 81.375 -105.257812 L 81.375 -218.476562 L 21.671875 -218.476562 L 21.671875 -105.257812 C 21.671875 -31.402344 65.011719 5.75 129.582031 5.75 Z M 129.582031 5.75 "/></g></g></g><g fill="#ffffff" fill-opacity="1"><g transform="translate(1145.350182, 1033.994566)"><g><path d="M 105.699219 5.75 C 161.867188 5.75 198.132812 -23.882812 198.132812 -68.550781 C 198.132812 -121.621094 147.273438 -128.699219 117.199219 -133.121094 C 95.085938 -136.214844 77.394531 -138.425781 77.394531 -153.023438 C 77.394531 -164.078125 86.242188 -173.808594 106.144531 -173.808594 C 122.949219 -173.808594 133.5625 -166.289062 134.890625 -154.347656 L 193.710938 -154.347656 C 192.382812 -193.269531 159.214844 -224.226562 105.257812 -224.226562 C 51.300781 -224.226562 16.804688 -194.152344 16.804688 -149.484375 C 16.804688 -96.414062 66.339844 -89.777344 98.183594 -85.355469 C 120.296875 -82.261719 137.984375 -80.492188 137.984375 -65.011719 C 137.984375 -53.957031 128.699219 -44.667969 105.257812 -44.667969 C 83.585938 -44.667969 72.972656 -52.628906 72.53125 -65.453125 L 12.824219 -65.453125 C 14.152344 -24.324219 49.976562 5.75 105.699219 5.75 Z M 105.699219 5.75 "/></g></g></g><g clip-path="url(#d9bf683628)"><path fill="#ffffff" d="M 1071.53125 1244.429688 C 1071.53125 1244.429688 1071.507812 1244.222656 1071.5 1244.203125 C 1071.484375 1220.457031 1066.726562 1198.050781 1057.910156 1176.34375 C 1040.730469 1136.984375 1010.097656 1105.722656 972.792969 1087.429688 C 957.285156 1079.347656 939.324219 1073.691406 918.714844 1071.253906 C 911.480469 1070.316406 904.191406 1069.589844 896.765625 1069.589844 C 890.402344 1069.589844 884.050781 1070.03125 877.726562 1070.75 C 772.71875 1081.457031 689.863281 1178.347656 607.414062 1253.800781 C 550.324219 1306.09375 493.234375 1348.148438 429.171875 1344.226562 L 427.429688 1344.226562 C 397.796875 1342.046875 373.609375 1335.289062 353.996094 1325.703125 C 352.039062 1324.832031 350.292969 1323.960938 348.335938 1322.652344 C 322.402344 1307.835938 300.835938 1285.609375 286.449219 1259.027344 C 284.488281 1255.320312 282.746094 1251.621094 281.21875 1247.914062 C 278.652344 1242.328125 276.882812 1236.332031 275.007812 1230.394531 C 273.117188 1224.117188 271.726562 1218.292969 270.617188 1212.824219 C 269.515625 1207.070312 268.195312 1201.398438 267.707031 1195.410156 C 267.054688 1186.910156 267.054688 1181.683594 267.054688 1181.683594 C 267.054688 1092.78125 340.488281 1019.351562 430.261719 1020.003906 C 493.449219 1020.65625 547.925781 1057.261719 574.292969 1110.429688 L 654.695312 1110.429688 C 632.253906 1031.542969 558.164062 966.832031 477.765625 950.707031 C 469.703125 948.527344 461.421875 947.875 453.359375 946.5625 C 446.609375 945.910156 439.199219 945.257812 432.222656 945.257812 L 424.8125 945.257812 C 424.160156 945.257812 423.507812 945.910156 423.507812 945.910156 L 411.308594 945.910156 C 296.910156 960.074219 203.214844 1040.261719 193.625 1157.925781 C 192.320312 1168.820312 191.660156 1180.367188 192.320312 1191.914062 C 196.242188 1275.589844 242.433594 1349.671875 313.25 1388.894531 C 340.488281 1405.890625 373.390625 1417.21875 413.480469 1418.527344 C 414.789062 1418.742188 416.097656 1418.960938 417.402344 1418.960938 L 423.289062 1418.960938 C 427.429688 1418.960938 431.566406 1418.746094 435.707031 1418.308594 C 436.582031 1418.527344 437.449219 1418.527344 438.324219 1418.308594 C 442.027344 1418.09375 445.734375 1417.65625 449.433594 1417.21875 C 452.703125 1417.003906 456.1875 1416.351562 459.675781 1415.914062 C 500.207031 1410.25 537.25 1395.867188 568.40625 1373.863281 C 637.769531 1333.421875 702.027344 1273.351562 758.972656 1224.769531 C 792.273438 1198.214844 826.878906 1172.71875 834.875 1166.859375 C 857.308594 1153.015625 878.058594 1144.414062 896.777344 1144.414062 C 897.089844 1144.414062 897.351562 1144.46875 897.667969 1144.472656 C 935.644531 1144.820312 968.292969 1166.660156 984.902344 1198.242188 C 991.304688 1211.914062 994.320312 1225.113281 995.652344 1233.894531 C 996.023438 1237.375 996.710938 1240.757812 996.710938 1244.332031 C 996.710938 1299.398438 951.835938 1344.28125 896.761719 1344.28125 C 841.691406 1344.28125 797.476562 1299.402344 797.476562 1244.332031 C 797.476562 1238.667969 798.242188 1233.199219 799.152344 1227.785156 L 729.101562 1290.660156 C 749.394531 1364.664062 816.839844 1419.074219 896.765625 1419.074219 C 993.957031 1419.074219 1071.449219 1340.246094 1071.507812 1244.433594 L 1071.539062 1244.433594 Z M 1071.53125 1244.429688 " fill-opacity="1" fill-rule="nonzero"/></g><path fill="#ffffff" d="M 902.65625 1209.46875 C 903.796875 1209.652344 904.925781 1209.894531 906.042969 1210.1875 C 907.160156 1210.480469 908.261719 1210.832031 909.34375 1211.234375 C 910.425781 1211.636719 911.488281 1212.089844 912.523438 1212.597656 C 913.5625 1213.105469 914.574219 1213.660156 915.558594 1214.269531 C 916.539062 1214.875 917.492188 1215.527344 918.410156 1216.226562 C 919.332031 1216.925781 920.210938 1217.667969 921.058594 1218.457031 C 921.90625 1219.242188 922.710938 1220.066406 923.476562 1220.933594 C 924.242188 1221.800781 924.960938 1222.699219 925.636719 1223.636719 C 926.316406 1224.574219 926.945312 1225.539062 927.527344 1226.539062 C 928.105469 1227.535156 928.636719 1228.558594 929.121094 1229.609375 C 929.601562 1230.660156 930.027344 1231.734375 930.40625 1232.824219 C 930.78125 1233.917969 931.101562 1235.027344 931.367188 1236.148438 C 931.632812 1237.273438 931.84375 1238.40625 932 1239.554688 C 932.15625 1240.699219 932.253906 1241.847656 932.296875 1243 C 932.339844 1244.15625 932.324219 1245.308594 932.253906 1246.464844 C 932.183594 1247.617188 932.054688 1248.761719 931.871094 1249.902344 C 931.6875 1251.042969 931.449219 1252.171875 931.15625 1253.289062 C 930.859375 1254.40625 930.511719 1255.507812 930.109375 1256.589844 C 929.707031 1257.671875 929.25 1258.734375 928.746094 1259.769531 C 928.238281 1260.808594 927.679688 1261.820312 927.074219 1262.804688 C 926.46875 1263.785156 925.816406 1264.738281 925.117188 1265.65625 C 924.417969 1266.578125 923.671875 1267.457031 922.886719 1268.304688 C 922.101562 1269.152344 921.273438 1269.957031 920.410156 1270.722656 C 919.542969 1271.488281 918.644531 1272.207031 917.707031 1272.882812 C 916.769531 1273.5625 915.800781 1274.191406 914.804688 1274.773438 C 913.804688 1275.351562 912.78125 1275.882812 911.730469 1276.367188 C 910.679688 1276.847656 909.609375 1277.273438 908.515625 1277.652344 C 907.425781 1278.027344 906.316406 1278.347656 905.191406 1278.613281 C 904.070312 1278.878906 902.933594 1279.089844 901.789062 1279.246094 C 900.644531 1279.402344 899.496094 1279.5 898.339844 1279.542969 C 897.1875 1279.585938 896.03125 1279.570312 894.878906 1279.5 C 893.726562 1279.429688 892.578125 1279.300781 891.4375 1279.117188 C 890.296875 1278.933594 889.167969 1278.695312 888.054688 1278.402344 C 886.9375 1278.105469 885.835938 1277.757812 884.753906 1277.355469 C 883.671875 1276.953125 882.609375 1276.496094 881.570312 1275.992188 C 880.535156 1275.484375 879.523438 1274.925781 878.539062 1274.320312 C 877.554688 1273.714844 876.605469 1273.0625 875.683594 1272.363281 C 874.765625 1271.664062 873.882812 1270.917969 873.039062 1270.132812 C 872.191406 1269.347656 871.386719 1268.519531 870.621094 1267.65625 C 869.855469 1266.789062 869.132812 1265.890625 868.457031 1264.953125 C 867.78125 1264.015625 867.152344 1263.046875 866.570312 1262.050781 C 865.988281 1261.050781 865.457031 1260.027344 864.976562 1258.976562 C 864.496094 1257.925781 864.066406 1256.855469 863.691406 1255.761719 C 863.316406 1254.671875 862.996094 1253.5625 862.726562 1252.4375 C 862.460938 1251.316406 862.25 1250.179688 862.09375 1249.035156 C 861.941406 1247.890625 861.839844 1246.742188 861.800781 1245.585938 C 861.757812 1244.433594 861.769531 1243.277344 861.84375 1242.125 C 861.914062 1240.972656 862.039062 1239.824219 862.222656 1238.683594 C 862.40625 1237.542969 862.648438 1236.414062 862.941406 1235.296875 C 863.238281 1234.183594 863.585938 1233.082031 863.988281 1232 C 864.390625 1230.917969 864.84375 1229.855469 865.351562 1228.816406 C 865.859375 1227.78125 866.414062 1226.769531 867.023438 1225.785156 C 867.628906 1224.800781 868.28125 1223.851562 868.980469 1222.929688 C 869.679688 1222.011719 870.421875 1221.128906 871.210938 1220.285156 C 871.996094 1219.4375 872.820312 1218.632812 873.6875 1217.867188 C 874.554688 1217.101562 875.453125 1216.378906 876.390625 1215.703125 C 877.328125 1215.027344 878.292969 1214.398438 879.292969 1213.816406 C 880.289062 1213.234375 881.3125 1212.703125 882.363281 1212.222656 C 883.414062 1211.742188 884.488281 1211.3125 885.578125 1210.9375 C 886.671875 1210.5625 887.78125 1210.242188 888.902344 1209.976562 C 890.027344 1209.707031 891.164062 1209.496094 892.308594 1209.339844 C 893.453125 1209.1875 894.601562 1209.085938 895.753906 1209.046875 C 896.910156 1209.003906 898.0625 1209.015625 899.21875 1209.089844 C 900.371094 1209.160156 901.515625 1209.285156 902.65625 1209.46875 Z M 902.65625 1209.46875 " fill-opacity="1" fill-rule="nonzero"/></svg>