<svg xmlns="http://www.w3.org/2000/svg" xmlns:xlink="http://www.w3.org/1999/xlink" width="1000" zoomAndPan="magnify" viewBox="0 0 750 374.999991" height="500" preserveAspectRatio="xMidYMid meet" version="1.0"><defs><clipPath id="3351fb74f0"><path d="M 675.285156 221.398438 L 709.925781 221.398438 L 709.925781 303.71875 L 675.285156 303.71875 Z M 675.285156 221.398438 " clip-rule="nonzero"/></clipPath><clipPath id="e187f93d85"><path d="M 43.136719 141.253906 L 348.746094 141.253906 L 348.746094 305.816406 L 43.136719 305.816406 Z M 43.136719 141.253906 " clip-rule="nonzero"/></clipPath></defs><path fill="#ffffff" d="M 427.167969 303.628906 L 412.59375 303.628906 L 412.59375 266.125 C 412.460938 257.378906 405.304688 250.226562 396.558594 250.226562 C 387.8125 250.226562 380.660156 257.378906 380.660156 266.125 L 380.660156 303.628906 L 366.082031 303.628906 L 366.082031 266.261719 C 366.082031 249.699219 379.46875 235.648438 396.429688 235.648438 C 413.390625 235.648438 427.171875 249.429688 427.171875 266.261719 L 427.171875 303.628906 Z M 427.167969 303.628906 " fill-opacity="1" fill-rule="nonzero"/><path fill="#ffffff" d="M 501.515625 303.628906 L 486.9375 303.628906 L 486.9375 266.125 C 486.804688 257.378906 479.652344 250.226562 470.902344 250.226562 C 462.15625 250.226562 455 257.378906 455 266.125 L 455 303.628906 L 440.425781 303.628906 L 440.425781 266.261719 C 440.425781 249.699219 453.808594 235.648438 470.773438 235.648438 C 487.734375 235.648438 501.515625 249.429688 501.515625 266.261719 Z M 501.515625 303.628906 " fill-opacity="1" fill-rule="nonzero"/><path fill="#ffffff" d="M 662.265625 280.832031 C 662.132812 281.097656 662.132812 281.230469 662 281.496094 C 657.234375 294.480469 645.171875 302.828125 631.390625 303.625 L 628.871094 303.625 C 627.683594 303.492188 626.488281 303.492188 625.425781 303.226562 C 610.320312 301.242188 597.070312 287.988281 596.277344 272.488281 C 596.144531 271.292969 596.144531 270.101562 596.144531 269.039062 C 596.144531 266.257812 596.542969 263.339844 597.335938 260.691406 C 601.179688 246.25 614.164062 236.179688 629.136719 235.648438 C 629.402344 235.648438 629.667969 235.648438 629.933594 235.515625 L 630.464844 235.515625 C 631.789062 235.648438 633.117188 235.648438 634.304688 235.777344 C 647.429688 238.164062 657.363281 245.453125 662.265625 258.304688 L 645.96875 258.304688 C 642.519531 253.40625 636.691406 250.089844 630.199219 250.089844 C 619.464844 250.089844 610.722656 258.839844 610.722656 269.570312 C 610.722656 280.304688 619.460938 288.914062 630.066406 289.050781 C 636.554688 289.050781 642.519531 285.871094 645.96875 280.835938 L 662.265625 280.835938 Z M 662.265625 280.832031 " fill-opacity="1" fill-rule="nonzero"/><g clip-path="url(#3351fb74f0)"><path fill="#ffffff" d="M 675.53125 250.359375 L 675.53125 235.78125 L 685.335938 235.78125 L 685.335938 221.734375 L 699.910156 221.734375 L 699.910156 235.78125 L 709.71875 235.78125 L 709.71875 250.359375 L 699.910156 250.359375 L 699.910156 279.773438 C 699.910156 284.945312 704.023438 289.046875 709.1875 289.046875 L 709.1875 303.625 C 696.195312 303.625 685.332031 293.15625 685.332031 280.035156 L 685.332031 250.355469 L 675.527344 250.355469 Z M 675.53125 250.359375 " fill-opacity="1" fill-rule="nonzero"/></g><path fill="#ffffff" d="M 582.753906 268.773438 L 582.753906 270.898438 C 582.753906 271.824219 582.625 272.621094 582.625 273.550781 C 582.492188 274.738281 582.226562 275.800781 581.960938 276.859375 L 530.808594 276.859375 C 533.058594 282.824219 539.554688 288.914062 548.566406 289.050781 C 554.664062 289.050781 559.566406 286.402344 563.011719 282.953125 L 580.105469 282.953125 C 575.066406 294.882812 562.613281 303.628906 549.625 303.628906 L 547.902344 303.628906 C 547.105469 303.628906 546.574219 303.496094 545.917969 303.496094 C 544.457031 303.363281 542.871094 303.097656 541.277344 302.832031 C 526.964844 299.382812 515.703125 287.066406 514.910156 272.089844 C 514.910156 271.425781 514.910156 270.898438 514.777344 270.367188 L 514.777344 268.378906 C 514.910156 267.71875 514.910156 267.1875 514.910156 266.523438 C 515.042969 265.070312 515.304688 263.609375 515.566406 262.019531 C 519.277344 247.042969 532.398438 235.648438 548.035156 235.648438 C 548.300781 235.519531 548.566406 235.648438 548.699219 235.519531 L 548.832031 235.519531 C 549.097656 235.648438 549.355469 235.519531 549.625 235.648438 C 564.332031 235.648438 577.847656 246.382812 581.558594 260.5625 C 582.089844 262.15625 582.355469 263.746094 582.621094 265.464844 C 582.621094 266.261719 582.753906 266.921875 582.753906 267.71875 L 582.753906 268.777344 Z M 566.71875 262.019531 C 563.671875 254.730469 556.648438 250.226562 548.699219 250.226562 C 547.105469 250.226562 545.652344 250.226562 544.058594 250.753906 C 538.492188 252.210938 534.253906 255.527344 531.472656 260.695312 C 531.339844 261.09375 531.074219 261.625 530.808594 262.023438 C 530.808594 262.199219 530.894531 262.289062 531.074219 262.289062 L 566.582031 262.289062 C 566.757812 262.289062 566.804688 262.199219 566.714844 262.023438 Z M 566.71875 262.019531 " fill-opacity="1" fill-rule="nonzero"/><path fill="#ffffff" d="M 238.78125 174.074219 C 262.902344 174.074219 279.796875 157.636719 279.796875 133.214844 C 279.796875 107.097656 260.289062 94.195312 242.46875 94.195312 C 232.484375 94.195312 224.191406 98.191406 219.121094 105.871094 L 219.121094 63.011719 L 198.382812 63.011719 L 198.382812 133.367188 C 198.382812 158.558594 215.28125 174.074219 238.78125 174.074219 Z M 238.9375 154.71875 C 227.109375 154.71875 219.121094 146.269531 219.121094 134.132812 C 219.121094 122 227.109375 113.550781 238.9375 113.550781 C 250.765625 113.550781 258.753906 122 258.753906 134.132812 C 258.753906 146.269531 250.765625 154.71875 238.9375 154.71875 Z M 238.9375 154.71875 " fill-opacity="1" fill-rule="nonzero"/><path fill="#ffffff" d="M 329.261719 174.074219 C 351.6875 174.074219 366.742188 161.015625 366.742188 135.515625 L 366.742188 96.191406 L 346.003906 96.191406 L 346.003906 135.515625 C 346.003906 148.726562 339.246094 154.71875 329.261719 154.71875 C 319.277344 154.71875 312.515625 148.726562 312.515625 135.515625 L 312.515625 96.191406 L 291.78125 96.191406 L 291.78125 135.515625 C 291.78125 161.167969 306.832031 174.074219 329.261719 174.074219 Z M 329.261719 174.074219 " fill-opacity="1" fill-rule="nonzero"/><path fill="#ffffff" d="M 410.980469 174.074219 C 430.492188 174.074219 443.085938 163.78125 443.085938 148.265625 C 443.085938 129.832031 425.421875 127.375 414.976562 125.839844 C 407.296875 124.765625 401.152344 123.996094 401.152344 118.925781 C 401.152344 115.085938 404.222656 111.707031 411.136719 111.707031 C 416.972656 111.707031 420.660156 114.320312 421.121094 118.464844 L 441.550781 118.464844 C 441.089844 104.949219 429.570312 94.195312 410.828125 94.195312 C 392.085938 94.195312 380.105469 104.640625 380.105469 120.15625 C 380.105469 138.589844 397.3125 140.894531 408.371094 142.429688 C 416.050781 143.503906 422.195312 144.117188 422.195312 149.496094 C 422.195312 153.335938 418.96875 156.5625 410.828125 156.5625 C 403.300781 156.5625 399.613281 153.796875 399.460938 149.34375 L 378.722656 149.34375 C 379.183594 163.628906 391.628906 174.074219 410.980469 174.074219 Z M 410.980469 174.074219 " fill-opacity="1" fill-rule="nonzero"/><g clip-path="url(#e187f93d85)"><path fill="#ffffff" d="M 348.628906 245.167969 C 348.628906 245.167969 348.621094 245.097656 348.617188 245.089844 C 348.613281 236.839844 346.960938 229.058594 343.898438 221.519531 C 337.929688 207.847656 327.289062 196.992188 314.332031 190.636719 C 308.949219 187.828125 302.710938 185.863281 295.550781 185.019531 C 293.039062 184.691406 290.507812 184.441406 287.925781 184.441406 C 285.71875 184.441406 283.511719 184.59375 281.3125 184.84375 C 244.839844 188.5625 216.0625 222.214844 187.425781 248.421875 C 167.597656 266.585938 147.765625 281.191406 125.515625 279.832031 L 124.910156 279.832031 C 114.617188 279.074219 106.21875 276.726562 99.40625 273.398438 C 98.726562 273.09375 98.117188 272.792969 97.4375 272.335938 C 88.429688 267.191406 80.941406 259.472656 75.945312 250.238281 C 75.261719 248.949219 74.65625 247.664062 74.128906 246.378906 C 73.234375 244.4375 72.621094 242.355469 71.96875 240.292969 C 71.3125 238.113281 70.832031 236.089844 70.445312 234.191406 C 70.0625 232.191406 69.605469 230.222656 69.433594 228.140625 C 69.207031 225.1875 69.207031 223.375 69.207031 223.375 C 69.207031 192.496094 94.714844 166.992188 125.894531 167.21875 C 147.839844 167.445312 166.761719 180.15625 175.921875 198.625 L 203.847656 198.625 C 196.054688 171.226562 170.320312 148.75 142.394531 143.148438 C 139.59375 142.390625 136.71875 142.164062 133.917969 141.707031 C 131.574219 141.480469 129 141.253906 126.574219 141.253906 L 124 141.253906 C 123.773438 141.253906 123.546875 141.480469 123.546875 141.480469 L 119.3125 141.480469 C 79.578125 146.402344 47.035156 174.253906 43.703125 215.121094 C 43.25 218.90625 43.019531 222.917969 43.25 226.925781 C 44.613281 255.992188 60.65625 281.722656 85.253906 295.34375 C 94.714844 301.25 106.140625 305.183594 120.066406 305.636719 C 120.519531 305.710938 120.976562 305.789062 121.429688 305.789062 L 123.472656 305.789062 C 124.910156 305.789062 126.347656 305.714844 127.785156 305.5625 C 128.089844 305.636719 128.390625 305.636719 128.695312 305.5625 C 129.980469 305.488281 131.269531 305.335938 132.554688 305.183594 C 133.6875 305.109375 134.898438 304.882812 136.109375 304.730469 C 150.1875 302.761719 163.054688 297.765625 173.875 290.125 C 197.96875 276.078125 220.289062 255.214844 240.066406 238.339844 C 251.632812 229.117188 263.652344 220.261719 266.429688 218.226562 C 274.222656 213.417969 281.429688 210.429688 287.929688 210.429688 C 288.039062 210.429688 288.128906 210.449219 288.242188 210.449219 C 301.429688 210.570312 312.769531 218.15625 318.539062 229.125 C 320.761719 233.875 321.8125 238.457031 322.273438 241.507812 C 322.402344 242.71875 322.640625 243.890625 322.640625 245.132812 C 322.640625 264.261719 307.054688 279.847656 287.925781 279.847656 C 268.796875 279.847656 253.441406 264.261719 253.441406 245.132812 C 253.441406 243.167969 253.707031 241.265625 254.023438 239.386719 L 229.691406 261.226562 C 236.738281 286.929688 260.167969 305.828125 287.925781 305.828125 C 321.683594 305.828125 348.601562 278.449219 348.621094 245.167969 L 348.632812 245.167969 Z M 348.628906 245.167969 " fill-opacity="1" fill-rule="nonzero"/></g><path fill="#ffffff" d="M 289.972656 233.023438 C 290.371094 233.089844 290.761719 233.171875 291.148438 233.273438 C 291.539062 233.375 291.921875 233.5 292.296875 233.636719 C 292.671875 233.777344 293.039062 233.933594 293.398438 234.113281 C 293.761719 234.289062 294.113281 234.480469 294.453125 234.691406 C 294.796875 234.902344 295.125 235.128906 295.445312 235.371094 C 295.765625 235.613281 296.070312 235.871094 296.363281 236.148438 C 296.660156 236.417969 296.9375 236.707031 297.203125 237.007812 C 297.46875 237.308594 297.71875 237.621094 297.953125 237.945312 C 298.191406 238.269531 298.410156 238.605469 298.613281 238.953125 C 298.8125 239.300781 298.996094 239.65625 299.164062 240.019531 C 299.332031 240.386719 299.480469 240.757812 299.613281 241.136719 C 299.742188 241.515625 299.851562 241.902344 299.945312 242.292969 C 300.039062 242.683594 300.109375 243.074219 300.164062 243.472656 C 300.21875 243.871094 300.253906 244.269531 300.269531 244.671875 C 300.28125 245.074219 300.277344 245.472656 300.253906 245.875 C 300.230469 246.273438 300.183594 246.671875 300.121094 247.070312 C 300.054688 247.464844 299.972656 247.855469 299.871094 248.246094 C 299.769531 248.632812 299.648438 249.015625 299.507812 249.390625 C 299.367188 249.765625 299.210938 250.136719 299.035156 250.496094 C 298.859375 250.855469 298.664062 251.207031 298.453125 251.550781 C 298.242188 251.890625 298.015625 252.222656 297.773438 252.539062 C 297.53125 252.859375 297.273438 253.164062 297 253.460938 C 296.726562 253.753906 296.4375 254.035156 296.140625 254.300781 C 295.839844 254.566406 295.527344 254.816406 295.199219 255.050781 C 294.875 255.285156 294.539062 255.503906 294.191406 255.707031 C 293.84375 255.90625 293.488281 256.09375 293.125 256.261719 C 292.761719 256.425781 292.386719 256.574219 292.007812 256.707031 C 291.628906 256.835938 291.246094 256.949219 290.855469 257.039062 C 290.464844 257.132812 290.070312 257.207031 289.671875 257.261719 C 289.273438 257.316406 288.875 257.347656 288.472656 257.363281 C 288.074219 257.378906 287.671875 257.375 287.273438 257.347656 C 286.871094 257.324219 286.472656 257.28125 286.078125 257.214844 C 285.679688 257.152344 285.289062 257.070312 284.902344 256.96875 C 284.511719 256.863281 284.128906 256.742188 283.753906 256.605469 C 283.378906 256.464844 283.011719 256.304688 282.648438 256.128906 C 282.289062 255.953125 281.9375 255.761719 281.597656 255.550781 C 281.253906 255.339844 280.925781 255.113281 280.605469 254.871094 C 280.285156 254.628906 279.980469 254.367188 279.6875 254.09375 C 279.390625 253.824219 279.113281 253.535156 278.847656 253.234375 C 278.582031 252.933594 278.328125 252.621094 278.09375 252.296875 C 277.859375 251.96875 277.640625 251.632812 277.4375 251.289062 C 277.238281 250.941406 277.050781 250.585938 276.886719 250.21875 C 276.71875 249.855469 276.570312 249.484375 276.4375 249.105469 C 276.308594 248.726562 276.199219 248.339844 276.105469 247.949219 C 276.011719 247.558594 275.9375 247.164062 275.882812 246.765625 C 275.832031 246.371094 275.796875 245.972656 275.78125 245.570312 C 275.769531 245.167969 275.773438 244.765625 275.796875 244.367188 C 275.820312 243.96875 275.867188 243.566406 275.929688 243.171875 C 275.992188 242.777344 276.078125 242.382812 276.179688 241.996094 C 276.28125 241.609375 276.402344 241.226562 276.542969 240.851562 C 276.683594 240.476562 276.839844 240.105469 277.015625 239.746094 C 277.191406 239.386719 277.386719 239.035156 277.597656 238.691406 C 277.808594 238.351562 278.035156 238.019531 278.277344 237.699219 C 278.519531 237.382812 278.777344 237.074219 279.050781 236.78125 C 279.324219 236.488281 279.609375 236.207031 279.910156 235.941406 C 280.210938 235.675781 280.523438 235.425781 280.851562 235.191406 C 281.175781 234.957031 281.511719 234.738281 281.859375 234.535156 C 282.203125 234.332031 282.558594 234.148438 282.925781 233.980469 C 283.289062 233.8125 283.664062 233.664062 284.042969 233.535156 C 284.421875 233.40625 284.804688 233.292969 285.195312 233.199219 C 285.585938 233.109375 285.980469 233.035156 286.378906 232.980469 C 286.777344 232.925781 287.175781 232.890625 287.574219 232.878906 C 287.976562 232.863281 288.378906 232.867188 288.777344 232.894531 C 289.179688 232.917969 289.578125 232.960938 289.972656 233.023438 Z M 289.972656 233.023438 " fill-opacity="1" fill-rule="nonzero"/></svg>