<?xml version="1.0" encoding="UTF-8" standalone="no"?>
<!-- Created with Inkscape (http://www.inkscape.org/) -->

<svg
   width="677.00726mm"
   height="246.6115mm"
   viewBox="0 0 677.00726 246.6115"
   version="1.1"
   id="svg1"
   xml:space="preserve"
   xmlns:xlink="http://www.w3.org/1999/xlink"
   xmlns="http://www.w3.org/2000/svg"
   xmlns:svg="http://www.w3.org/2000/svg"><defs
     id="defs1"><linearGradient
       id="linearGradient7"><stop
         style="stop-color:#ff66c4;stop-opacity:1;"
         offset="0"
         id="stop8" /><stop
         style="stop-color:#839edf;stop-opacity:1;"
         offset="0.48002854"
         id="stop10" /><stop
         style="stop-color:#07d6fb;stop-opacity:1;"
         offset="1"
         id="stop9" /></linearGradient><clipPath
       id="bcf24dd271"><path
         d="m 2012,1176 h 99.7305 v 237 H 2012 Z m 0,0"
         clip-rule="nonzero"
         id="path1" /></clipPath><clipPath
       id="d9bf683628"><path
         d="m 192,945.25781 h 879.8711 V 1419.0469 H 192 Z m 0,0"
         clip-rule="nonzero"
         id="path2" /></clipPath><linearGradient
       xlink:href="#linearGradient7"
       id="linearGradient9"
       x1="2111.1372"
       y1="1069.519"
       x2="192.06099"
       y2="1069.519"
       gradientUnits="userSpaceOnUse"
       spreadMethod="pad" /><linearGradient
       xlink:href="#linearGradient7"
       id="linearGradient2"
       gradientUnits="userSpaceOnUse"
       x1="2111.1372"
       y1="1069.519"
       x2="192.06099"
       y2="1069.519"
       spreadMethod="pad" /><linearGradient
       xlink:href="#linearGradient7"
       id="linearGradient3"
       gradientUnits="userSpaceOnUse"
       x1="2111.1372"
       y1="1069.519"
       x2="192.06099"
       y2="1069.519"
       spreadMethod="pad" /><linearGradient
       xlink:href="#linearGradient7"
       id="linearGradient4"
       gradientUnits="userSpaceOnUse"
       x1="2111.1372"
       y1="1069.519"
       x2="192.06099"
       y2="1069.519"
       spreadMethod="pad" /><linearGradient
       xlink:href="#linearGradient7"
       id="linearGradient5"
       gradientUnits="userSpaceOnUse"
       x1="2111.1372"
       y1="1069.519"
       x2="192.06099"
       y2="1069.519"
       spreadMethod="pad" /><linearGradient
       xlink:href="#linearGradient7"
       id="linearGradient6"
       gradientUnits="userSpaceOnUse"
       x1="2111.1372"
       y1="1069.519"
       x2="192.06099"
       y2="1069.519"
       spreadMethod="pad" /><linearGradient
       xlink:href="#linearGradient7"
       id="linearGradient8"
       gradientUnits="userSpaceOnUse"
       x1="2111.1372"
       y1="1069.519"
       x2="192.06099"
       y2="1069.519"
       spreadMethod="pad" /><linearGradient
       xlink:href="#linearGradient7"
       id="linearGradient10"
       gradientUnits="userSpaceOnUse"
       x1="2111.1372"
       y1="1069.519"
       x2="192.06099"
       y2="1069.519"
       spreadMethod="pad" /><linearGradient
       xlink:href="#linearGradient7"
       id="linearGradient11"
       gradientUnits="userSpaceOnUse"
       x1="2111.1372"
       y1="1069.519"
       x2="192.06099"
       y2="1069.519"
       spreadMethod="pad" /><linearGradient
       xlink:href="#linearGradient7"
       id="linearGradient12"
       gradientUnits="userSpaceOnUse"
       x1="2111.1372"
       y1="1069.519"
       x2="192.06099"
       y2="1069.519"
       spreadMethod="pad" /><linearGradient
       xlink:href="#linearGradient7"
       id="linearGradient13"
       gradientUnits="userSpaceOnUse"
       x1="2111.1372"
       y1="1069.519"
       x2="192.06099"
       y2="1069.519"
       spreadMethod="pad" /><linearGradient
       xlink:href="#linearGradient7"
       id="linearGradient14"
       gradientUnits="userSpaceOnUse"
       x1="2111.1372"
       y1="1069.519"
       x2="192.06099"
       y2="1069.519"
       spreadMethod="pad" /><linearGradient
       xlink:href="#linearGradient7"
       id="linearGradient15"
       gradientUnits="userSpaceOnUse"
       x1="2111.1372"
       y1="1069.519"
       x2="192.06099"
       y2="1069.519"
       spreadMethod="pad" /><linearGradient
       xlink:href="#linearGradient7"
       id="linearGradient16"
       gradientUnits="userSpaceOnUse"
       x1="2111.1372"
       y1="1069.519"
       x2="192.06099"
       y2="1069.519"
       spreadMethod="pad" /><linearGradient
       xlink:href="#linearGradient7"
       id="linearGradient17"
       gradientUnits="userSpaceOnUse"
       x1="2111.1372"
       y1="1069.519"
       x2="192.06099"
       y2="1069.519"
       spreadMethod="pad" /><linearGradient
       xlink:href="#linearGradient7"
       id="linearGradient18"
       gradientUnits="userSpaceOnUse"
       x1="2111.1372"
       y1="1069.519"
       x2="192.06099"
       y2="1069.519"
       spreadMethod="pad" /><linearGradient
       xlink:href="#linearGradient7"
       id="linearGradient19"
       gradientUnits="userSpaceOnUse"
       x1="2111.1372"
       y1="1069.519"
       x2="192.06099"
       y2="1069.519"
       spreadMethod="pad" /><linearGradient
       xlink:href="#linearGradient7"
       id="linearGradient20"
       gradientUnits="userSpaceOnUse"
       x1="2111.1372"
       y1="1069.519"
       x2="192.06099"
       y2="1069.519"
       spreadMethod="pad" /><linearGradient
       xlink:href="#linearGradient7"
       id="linearGradient21"
       gradientUnits="userSpaceOnUse"
       x1="2111.1372"
       y1="1069.519"
       x2="192.06099"
       y2="1069.519"
       spreadMethod="pad" /><linearGradient
       xlink:href="#linearGradient7"
       id="linearGradient22"
       gradientUnits="userSpaceOnUse"
       x1="2111.1372"
       y1="1069.519"
       x2="192.06099"
       y2="1069.519"
       spreadMethod="pad" /><linearGradient
       xlink:href="#linearGradient7"
       id="linearGradient23"
       gradientUnits="userSpaceOnUse"
       x1="2111.1372"
       y1="1069.519"
       x2="192.06099"
       y2="1069.519"
       spreadMethod="pad" /><linearGradient
       xlink:href="#linearGradient7"
       id="linearGradient24"
       gradientUnits="userSpaceOnUse"
       x1="2111.1372"
       y1="1069.519"
       x2="192.06099"
       y2="1069.519"
       spreadMethod="pad" /></defs><g
     id="layer1"
     transform="translate(233.72862,-25.125507)"><g
       id="g2"
       transform="matrix(0.35277778,0,0,0.35277778,-301.48349,-228.87121)"
       style="fill:url(#linearGradient9);fill-opacity:1"><path
         fill="#ffffff"
         d="m 1297.6523,1412.7383 h -41.9648 v -107.9727 c -0.3828,-25.1836 -20.9805,-45.7734 -46.1641,-45.7734 -25.1836,0 -45.7695,20.5976 -45.7695,45.7734 v 107.9727 h -41.9687 v -107.582 c 0,-47.6836 38.5312,-88.129 87.3671,-88.129 48.836,0 88.5118,39.6719 88.5118,88.129 v 107.582 z m 0,0"
         fill-opacity="1"
         fill-rule="nonzero"
         id="path3"
         style="fill:url(#linearGradient2);fill-opacity:1" /><path
         fill="#ffffff"
         d="m 1511.6992,1412.7383 h -41.9648 v -107.9727 c -0.3828,-25.1836 -20.9805,-45.7734 -46.1641,-45.7734 -25.1836,0 -45.789,20.5976 -45.789,45.7734 v 107.9727 h -41.9571 v -107.582 c 0,-47.6836 38.5313,-88.129 87.3672,-88.129 48.8359,0 88.5078,39.6719 88.5078,88.129 z m 0,0"
         fill-opacity="1"
         fill-rule="nonzero"
         id="path4"
         style="fill:url(#linearGradient3);fill-opacity:1" /><path
         fill="#ffffff"
         d="m 1974.5156,1347.1133 c -0.3789,0.7617 -0.3789,1.1406 -0.7617,1.9101 -13.7266,37.3829 -48.4531,61.4141 -88.1289,63.7071 h -7.25 c -3.4219,-0.3789 -6.8672,-0.3789 -9.9219,-1.1407 -43.4883,-5.7187 -81.6406,-43.871 -83.9218,-88.5078 -0.3829,-3.4375 -0.3829,-6.8711 -0.3829,-9.9257 0,-8.0118 1.1446,-16.4024 3.4258,-24.0313 11.0664,-41.5781 48.4571,-70.5742 91.5625,-72.1055 0.7617,0 1.5313,0 2.293,-0.3828 h 1.5312 c 3.8086,0.3828 7.6329,0.3828 11.0586,0.7617 37.7774,6.8711 66.3868,27.8477 80.4961,64.8555 h -46.9218 c -9.9258,-14.1094 -26.7071,-23.6484 -45.3946,-23.6484 -30.9101,0 -56.082,25.1836 -56.082,56.082 0,30.9023 25.1641,55.6953 55.6953,56.0859 18.6836,0 35.8555,-9.1601 45.7813,-23.6523 h 46.9218 z m 0,0"
         fill-opacity="1"
         fill-rule="nonzero"
         id="path5"
         style="fill:url(#linearGradient4);fill-opacity:1" /><g
         clip-path="url(#bcf24dd271)"
         id="g6"
         style="fill:url(#linearGradient6);fill-opacity:1"><path
           fill="#ffffff"
           d="m 2012.7031,1259.375 v -41.9687 h 28.2305 v -40.4415 h 41.9648 v 40.4415 h 28.2383 v 41.9687 h -28.2383 v 84.6836 c 0,14.8906 11.836,26.707 26.7071,26.707 v 41.9649 c -37.4024,0 -68.6836,-30.1407 -68.6836,-67.9102 v -85.457 h -28.2266 z m 0,0"
           fill-opacity="1"
           fill-rule="nonzero"
           id="path6"
           style="fill:url(#linearGradient5);fill-opacity:1" /></g><path
         fill="#ffffff"
         d="m 1745.5977,1312.3945 v 6.1172 c 0,2.6641 -0.3789,4.9571 -0.3789,7.6328 -0.379,3.4258 -1.1407,6.4766 -1.9102,9.5235 h -147.2695 c 6.4804,17.1718 25.1836,34.7148 51.1289,35.1054 17.5547,0 31.664,-7.6289 41.5859,-17.5546 h 49.2149 c -14.5079,34.3398 -50.3555,59.5195 -87.7579,59.5195 h -4.957 c -2.2891,0 -3.8242,-0.3789 -5.7148,-0.3789 -4.2071,-0.3789 -8.7735,-1.1406 -13.3594,-1.9102 -41.2031,-9.9258 -73.6289,-45.3945 -75.9141,-88.5117 0,-1.9102 0,-3.4258 -0.3789,-4.957 v -5.7266 c 0.3789,-1.8945 0.3789,-3.4258 0.3789,-5.3359 0.3828,-4.1875 1.1328,-8.3946 1.8946,-12.9688 10.6836,-43.1172 48.457,-75.9219 93.4765,-75.9219 0.7617,-0.3789 1.5313,0 1.9102,-0.3789 h 0.3828 c 0.7617,0.3789 1.5117,0 2.2812,0.3789 42.3477,0 81.2618,30.9024 91.9454,71.7266 1.5312,4.5859 2.2929,9.1602 3.0546,14.1094 0,2.293 0.3789,4.2031 0.3789,6.4961 v 3.0469 z m -46.168,-19.4453 c -8.7734,-20.9883 -28.9922,-33.957 -51.8828,-33.957 -4.586,0 -8.7696,0 -13.3555,1.5234 -16.0234,4.1953 -28.2305,13.7383 -36.2383,28.6172 -0.3828,1.1445 -1.1445,2.6758 -1.914,3.8242 0,0.5078 0.2539,0.7618 0.7617,0.7618 h 102.2383 c 0.5078,0 0.6328,-0.254 0.3789,-0.7618 z m 0,0"
         fill-opacity="1"
         fill-rule="nonzero"
         id="path7"
         style="fill:url(#linearGradient8);fill-opacity:1" /><g
         fill="#ffffff"
         fill-opacity="1"
         id="g10"
         style="fill:url(#linearGradient13);fill-opacity:1"><g
           transform="translate(617.29161,1033.9946)"
           id="g9"
           style="fill:url(#linearGradient12);fill-opacity:1"><g
             id="g8"
             style="fill:url(#linearGradient11);fill-opacity:1"><path
               d="m 137.98437,5.75 c 69.4375,0 118.08594,-47.324219 118.08594,-117.64063 0,-75.18749 -56.16797,-112.33593 -107.46875,-112.33593 -28.75,0 -52.63281,11.5 -67.22656,33.61328 V -314.00391 H 21.671875 v 202.55469 C 21.671875,-38.917969 70.320312,5.75 137.98437,5.75 Z m 0.44141,-55.726562 c -34.05078,0 -57.05078,-24.324219 -57.05078,-59.261718 0,-34.9375 23,-59.26172 57.05078,-59.26172 34.05469,0 57.05469,24.32422 57.05469,59.26172 0,34.937499 -23,59.261718 -57.05469,59.261718 z m 0,0"
               id="path8"
               style="fill:url(#linearGradient10);fill-opacity:1" /></g></g></g><g
         fill="#ffffff"
         fill-opacity="1"
         id="g13"
         style="fill:url(#linearGradient17);fill-opacity:1"><g
           transform="translate(886.18578,1033.9946)"
           id="g12"
           style="fill:url(#linearGradient16);fill-opacity:1"><g
             id="g11"
             style="fill:url(#linearGradient15);fill-opacity:1"><path
               d="m 129.58203,5.75 c 64.57031,0 107.91016,-37.59375 107.91016,-111.00781 v -113.21875 h -59.70313 v 113.21875 c 0,38.035154 -19.46094,55.281248 -48.20703,55.281248 -28.74609,0 -48.20703,-17.246094 -48.20703,-55.281248 V -218.47656 H 21.671875 v 113.21875 C 21.671875,-31.402344 65.011719,5.75 129.58203,5.75 Z m 0,0"
               id="path10"
               style="fill:url(#linearGradient14);fill-opacity:1" /></g></g></g><g
         fill="#ffffff"
         fill-opacity="1"
         id="g16"
         style="fill:url(#linearGradient21);fill-opacity:1"><g
           transform="translate(1145.3502,1033.9946)"
           id="g15"
           style="fill:url(#linearGradient20);fill-opacity:1"><g
             id="g14"
             style="fill:url(#linearGradient19);fill-opacity:1"><path
               d="m 105.69922,5.75 c 56.16797,0 92.43359,-29.632812 92.43359,-74.300781 0,-53.070309 -50.85937,-60.148439 -80.93359,-64.570309 -22.113282,-3.09375 -39.804689,-5.30469 -39.804689,-19.90235 0,-11.05468 8.847657,-20.78515 28.749999,-20.78515 16.80469,0 27.41797,7.51953 28.74609,19.46093 h 58.82032 c -1.32813,-38.92187 -34.4961,-69.8789 -88.45313,-69.8789 -53.957029,0 -88.453122,30.07422 -88.453122,74.74219 0,53.070308 49.535156,59.707026 81.378906,64.128901 22.113286,3.09375 39.800776,4.863281 39.800776,20.34375 0,11.054688 -9.28515,20.34375 -32.72656,20.34375 -21.671872,0 -32.285154,-7.960937 -32.72656,-20.785156 H 12.824219 C 14.152344,-24.324219 49.976562,5.75 105.69922,5.75 Z m 0,0"
               id="path13"
               style="fill:url(#linearGradient18);fill-opacity:1" /></g></g></g><g
         clip-path="url(#d9bf683628)"
         id="g17"
         style="fill:url(#linearGradient23);fill-opacity:1"><path
           fill="#ffffff"
           d="m 1071.5313,1244.4297 c 0,0 -0.024,-0.207 -0.031,-0.2266 -0.016,-23.7461 -4.7734,-46.1523 -13.5898,-67.8593 -17.1797,-39.3594 -47.8125,-70.6211 -85.11723,-88.9141 -15.50781,-8.082 -33.46875,-13.7383 -54.07813,-16.1758 -7.23437,-0.9375 -14.52343,-1.6641 -21.94922,-1.6641 -6.36328,0 -12.71484,0.4415 -19.03906,1.1602 -105.00781,10.707 -187.86328,107.5977 -270.3125,183.0508 -57.08984,52.293 -114.17969,94.3476 -178.24219,90.4258 h -1.74218 c -29.63282,-2.1797 -53.82032,-8.9375 -73.4336,-18.5235 -1.95703,-0.8711 -3.70312,-1.7422 -5.66015,-3.0508 -25.9336,-14.8164 -47.5,-37.0429 -61.88672,-63.625 -1.96094,-3.707 -3.70313,-7.4062 -5.23047,-11.1132 -2.56641,-5.586 -4.33594,-11.5821 -6.21094,-17.5196 -1.89062,-6.2773 -3.28125,-12.1015 -4.39062,-17.5703 -1.10157,-5.7539 -2.42188,-11.4258 -2.91016,-17.414 -0.65234,-8.5 -0.65234,-13.7266 -0.65234,-13.7266 0,-88.9023 73.43359,-162.332 163.20703,-161.6797 63.1875,0.6523 117.66406,37.2578 144.03125,90.4258 h 80.40234 c -22.4414,-78.8867 -96.53125,-143.59767 -176.92969,-159.72267 -8.0625,-2.17969 -16.34375,-2.83203 -24.40625,-4.14453 -6.75,-0.65234 -14.16015,-1.30469 -21.13671,-1.30469 h -7.41016 c -0.65234,0 -1.30469,0.65235 -1.30469,0.65235 H 411.30859 C 296.91016,960.07422 203.21484,1040.2617 193.625,1157.9258 c -1.30469,10.8945 -1.96484,22.4414 -1.30469,33.9883 3.92188,83.6757 50.11328,157.7578 120.92969,196.9804 27.23828,16.9961 60.14062,28.3243 100.23047,29.6328 1.30859,0.2149 2.61719,0.4336 3.92187,0.4336 h 5.88672 c 4.14063,0 8.27735,-0.2148 12.41797,-0.6523 0.875,0.2187 1.74219,0.2187 2.61719,0 3.70312,-0.2148 7.41015,-0.6523 11.10937,-1.0898 3.26953,-0.2149 6.75391,-0.8672 10.24219,-1.3047 40.53125,-5.6641 77.57422,-20.0469 108.73047,-42.0508 69.36328,-40.4414 133.62109,-100.5117 190.56641,-149.0938 33.30078,-26.5547 67.90625,-52.0507 75.90234,-57.9101 22.43359,-13.8438 43.18359,-22.4453 61.90234,-22.4453 0.3125,0 0.57422,0.055 0.89063,0.059 37.97656,0.3476 70.625,22.1875 87.23437,53.7695 6.40235,13.6719 9.41797,26.8711 10.75,35.6523 0.3711,3.4805 1.0586,6.8633 1.0586,10.4375 0,55.0664 -44.875,99.9493 -99.94922,99.9493 -55.07031,0 -99.28516,-44.879 -99.28516,-99.9493 0,-5.664 0.76563,-11.1328 1.67578,-16.5468 l -70.05078,62.875 c 20.29297,74.0039 87.73828,128.414 167.66406,128.414 97.19141,0 174.68358,-78.8281 174.74218,-174.6406 h 0.031 z m 0,0"
           fill-opacity="1"
           fill-rule="nonzero"
           id="path16"
           style="fill:url(#linearGradient22);fill-opacity:1" /></g><path
         fill="#ffffff"
         d="m 902.65625,1209.4688 c 1.14062,0.1835 2.26953,0.4257 3.38672,0.7187 1.11719,0.293 2.21875,0.6445 3.30078,1.0469 1.08203,0.4023 2.14453,0.8554 3.17969,1.3633 1.03906,0.5078 2.05078,1.0625 3.03515,1.6718 0.98047,0.6055 1.9336,1.2578 2.85157,1.9571 0.92187,0.6992 1.80078,1.4414 2.64843,2.2304 0.84766,0.7852 1.65235,1.6094 2.41797,2.4766 0.76563,0.8672 1.48438,1.7656 2.16016,2.7031 0.67969,0.9375 1.30859,1.9024 1.89062,2.9024 0.57813,0.9961 1.10938,2.0195 1.59375,3.0703 0.48047,1.0508 0.90625,2.125 1.28516,3.2148 0.375,1.0938 0.69531,2.2031 0.96094,3.3242 0.26562,1.125 0.47656,2.2579 0.63281,3.4063 0.15625,1.1445 0.25391,2.293 0.29687,3.4453 0.043,1.1563 0.0273,2.3086 -0.043,3.4648 -0.0703,1.1524 -0.19922,2.2969 -0.38282,3.4375 -0.18359,1.1407 -0.42187,2.2696 -0.71484,3.3868 -0.29688,1.1172 -0.64453,2.2187 -1.04688,3.3007 -0.40234,1.0821 -0.85937,2.1446 -1.36328,3.1797 -0.50781,1.0391 -1.0664,2.0508 -1.67187,3.0352 -0.60547,0.9805 -1.25781,1.9336 -1.95703,2.8516 -0.69922,0.9218 -1.44532,1.8007 -2.23047,2.6484 -0.78516,0.8476 -1.61328,1.6523 -2.47656,2.418 -0.86719,0.7656 -1.76563,1.4843 -2.70313,2.1601 -0.9375,0.6797 -1.90625,1.3086 -2.90234,1.8906 -1,0.5782 -2.02344,1.1094 -3.07422,1.5938 -1.05078,0.4805 -2.1211,0.9062 -3.21485,1.2851 -1.08984,0.375 -2.19921,0.6954 -3.32421,0.961 -1.1211,0.2656 -2.25782,0.4765 -3.40235,0.6328 -1.14453,0.1562 -2.29297,0.2539 -3.44922,0.2969 -1.15234,0.043 -2.30859,0.027 -3.46093,-0.043 -1.15235,-0.07 -2.30079,-0.1992 -3.44141,-0.3828 -1.14063,-0.1836 -2.26953,-0.4219 -3.38281,-0.7149 -1.11719,-0.2968 -2.21875,-0.6445 -3.30078,-1.0468 -1.08204,-0.4024 -2.14454,-0.8594 -3.1836,-1.3633 -1.03515,-0.5078 -2.04687,-1.0664 -3.03125,-1.6719 -0.98437,-0.6055 -1.93359,-1.2578 -2.85547,-1.957 -0.91797,-0.6992 -1.80078,-1.4453 -2.64453,-2.2305 -0.84765,-0.7851 -1.65234,-1.6133 -2.41797,-2.4765 -0.76562,-0.8672 -1.48828,-1.7657 -2.16406,-2.7032 -0.67578,-0.9375 -1.30469,-1.9062 -1.88672,-2.9023 -0.58203,-1 -1.11328,-2.0235 -1.59375,-3.0742 -0.48047,-1.0508 -0.91015,-2.1211 -1.28515,-3.2149 -0.375,-1.0898 -0.69532,-2.1992 -0.96485,-3.3242 -0.26562,-1.1211 -0.47656,-2.2578 -0.63281,-3.4023 -0.15234,-1.1446 -0.25391,-2.293 -0.29297,-3.4493 -0.043,-1.1523 -0.0312,-2.3086 0.043,-3.4609 0.0703,-1.1523 0.19531,-2.3008 0.37891,-3.4414 0.18359,-1.1406 0.42578,-2.2695 0.71875,-3.3867 0.29687,-1.1133 0.64453,-2.2149 1.04687,-3.2969 0.40234,-1.082 0.85547,-2.1445 1.36328,-3.1836 0.50781,-1.0351 1.0625,-2.0469 1.67188,-3.0312 0.60547,-0.9844 1.25781,-1.9336 1.95703,-2.8555 0.69922,-0.918 1.4414,-1.8008 2.23047,-2.6445 0.78515,-0.8477 1.60937,-1.6524 2.47656,-2.418 0.86719,-0.7656 1.76562,-1.4883 2.70312,-2.1641 0.9375,-0.6758 1.90235,-1.3047 2.90235,-1.8867 0.99609,-0.582 2.01953,-1.1133 3.07031,-1.5937 1.05078,-0.4805 2.125,-0.9102 3.21484,-1.2852 1.09375,-0.375 2.20313,-0.6953 3.32422,-0.9609 1.125,-0.2696 2.26172,-0.4805 3.40625,-0.6368 1.14453,-0.1523 2.29297,-0.2539 3.44532,-0.2929 1.15625,-0.043 2.30859,-0.031 3.46484,0.043 1.15234,0.07 2.29687,0.1954 3.4375,0.379 z m 0,0"
         fill-opacity="1"
         fill-rule="nonzero"
         id="path17"
         style="fill:url(#linearGradient24);fill-opacity:1" /></g></g></svg>
