<svg xmlns="http://www.w3.org/2000/svg" xmlns:xlink="http://www.w3.org/1999/xlink" width="148.265" height="80" viewBox="0 0 148.265 80">
  <defs>
    <clipPath id="clip-path">
      <path id="Tracé_126" data-name="Tracé 126" d="M153.593,461.5s-.084,53.333-.084,63.554c0,0,19.023,8.02,22.467,9.145l7.644,3.215,1.956-.708,2.233-.929c5.128-2.159,6.153-2.47,11.912-4.96,3.355-1.451,13.925-5.764,13.925-5.764V461.5Z" transform="translate(-153.509 -461.496)" fill="none"/>
    </clipPath>
  </defs>
  <g id="Logo" transform="translate(-16 -65)">
    <g id="Groupe_5" data-name="Groupe 5" transform="translate(104.074 68.946)">
      <g id="Groupe_4" data-name="Groupe 4" clip-path="url(#clip-path)">
        <path id="Tracé_124" data-name="Tracé 124" d="M215.823,538.62l-.194-84.447h-64.11l.194,84.447Z" transform="translate(-153.627 -461.931)" fill="#fc9c0a"/>
        <path id="Tracé_125" data-name="Tracé 125" d="M211.772,527.912l2.059-36.31-31.657,0,.035,44.45Z" transform="translate(-151.808 -459.71)" fill="#fff"/>
        <rect id="Rectangle_968" data-name="Rectangle 968" width="3.292" height="74.658" transform="translate(3.371 -7.749)" fill="#dc091d"/>
        <rect id="Rectangle_969" data-name="Rectangle 969" width="3.291" height="77.418" transform="translate(10.051 -7.749)" fill="#dc091d"/>
        <rect id="Rectangle_970" data-name="Rectangle 970" width="3.292" height="80.382" transform="translate(16.73 -7.759)" fill="#dc091d"/>
        <rect id="Rectangle_971" data-name="Rectangle 971" width="3.292" height="82.803" transform="translate(23.408 -7.759)" fill="#dc091d"/>
      </g>
    </g>
    <g id="Groupe_7" data-name="Groupe 7" transform="translate(16 65)">
      <g id="Groupe_15" data-name="Groupe 15">
        <path id="Tracé_127" data-name="Tracé 127" d="M183.882,537.557a.155.155,0,0,1-.052-.011l-30.365-12.36a.137.137,0,0,1-.086-.127V461.51a.137.137,0,0,1,.138-.138H213.57a.137.137,0,0,1,.138.138v63.549a.139.139,0,0,1-.085.127l-29.688,12.36a.155.155,0,0,1-.053.011m-30.227-12.59,30.227,12.3,29.55-12.3V461.647H153.654Zm59.915.092h0Z" transform="translate(-65.443 -457.557)" fill="#1a1818"/>
        <path id="Tracé_128" data-name="Tracé 128" d="M205.23,516.425c-.508-3.919-2.16-6.349-4.026-6.349-1.889,0-3.53,2.843-4,6.968" transform="translate(-62.842 -454.667)" fill="#1a1818"/>
        <path id="Tracé_129" data-name="Tracé 129" d="M197.212,517.046l-.018,0a13.341,13.341,0,0,1,1.47-5.034,4.859,4.859,0,0,1,1.179-1.432,2.215,2.215,0,0,1,1.362-.511,3.143,3.143,0,0,1,2.529,1.71,11.4,11.4,0,0,1,1.505,4.647l-.018,0a11.386,11.386,0,0,0-1.5-4.64,3.122,3.122,0,0,0-2.513-1.7,2.192,2.192,0,0,0-1.351.506,4.814,4.814,0,0,0-1.174,1.426,13.309,13.309,0,0,0-1.469,5.028" transform="translate(-62.843 -454.667)" fill="#fff"/>
        <path id="Tracé_130" data-name="Tracé 130" d="M195.606,517.079c-.411-4.275-2.135-6.959-4.1-6.959-1.809,0-3.387,2.6-3.934,6.443" transform="translate(-63.413 -454.664)" fill="#1a1818"/>
        <path id="Tracé_131" data-name="Tracé 131" d="M195.6,517.08A12.256,12.256,0,0,0,194.133,512a3.264,3.264,0,0,0-2.621-1.872c-1.8,0-3.377,2.586-3.926,6.434l-.018,0c.55-3.859,2.136-6.451,3.944-6.451a3.284,3.284,0,0,1,2.637,1.881,12.281,12.281,0,0,1,1.467,5.086Z" transform="translate(-63.414 -454.665)" fill="#fff"/>
        <path id="Tracé_132" data-name="Tracé 132" d="M199.979,516.577c-.724-2.8-2.123-4.471-3.667-4.471-1.523,0-2.888,1.85-3.6,4.732" transform="translate(-63.109 -454.546)" fill="#1a1818"/>
        <path id="Tracé_133" data-name="Tracé 133" d="M192.73,516.845l-.044-.011c.729-2.929,2.119-4.749,3.627-4.749a2.855,2.855,0,0,1,2.16,1.193,8.626,8.626,0,0,1,1.53,3.3l-.044.012c-.71-2.748-2.106-4.455-3.645-4.455-1.486,0-2.859,1.806-3.583,4.714" transform="translate(-63.11 -454.547)" fill="#fff"/>
        <path id="Tracé_134" data-name="Tracé 134" d="M195.068,498.479l-.168-.06h-.452l-.133.039-.118.061-.135.061-.136.02-.151-.02-.15-.021-.152-.059-.118-.082-.118-.12-.068-.2-.016-.141-.017-.123-.068-.04-.085.061v.162l.018.181.067.221.068.162.1.1.1.1.133.061.167.02.151-.02h.135l.136-.061.166-.039.219-.059h.2l.151.019.151.058.117.063.151.1.118.081.136.02.033-.141-.05-.181-.085-.121-.085-.061-.084-.082Z" transform="translate(-63.092 -455.396)" fill="#dc091d"/>
        <path id="Tracé_135" data-name="Tracé 135" d="M195.5,499.061l-.176-.03-.269-.181-.114-.061-.147-.057-.144-.017h-.194l-.216.058-.166.04-.142.063h-.136l-.151.02-.18-.023-.142-.068-.209-.21-.068-.162-.068-.223-.019-.189v-.179l.113-.083.1.058.02.137.015.142.065.189.113.115.112.078.146.056.291.038.126-.018.13-.06.117-.06.147-.043.462,0,.16.057.142-.045.1.1.088.066.089.129.052.19Zm-.147-.084.1.015.025-.106-.048-.169-.078-.111-.081-.059-.074-.072-.126.039-.174-.061h-.443l-.129.037-.112.06-.144.065-.139.02-.307-.041-.158-.061-.124-.086-.129-.136-.068-.2-.032-.254-.038-.023-.056.041v.146l.018.179.066.215.064.154.194.192.125.057.159.019.147-.02h.133l.128-.058.172-.041.227-.06h.2l.155.019.158.06.121.065Z" transform="translate(-63.094 -455.398)" fill="#1a1818"/>
        <path id="Tracé_136" data-name="Tracé 136" d="M195.329,499.156l-.2-.027-.248-.108-.335-.054L194.3,499l-.27.107-.221.16.132-.026.18-.028h.224l.268.054.248.109.178.106.158.082,1.05-.141-.052-.832-.589-.6-.4-.039-.1-.645-.287.084-.156-.187-.2-.109-.179-.028-.257.054-.2.122-.191.175-.113.161-.089.3.046.323.09.24.088-.16.113-.109.178-.054.224.028.27.055.269.107.269.163.178.16.158.159.068.218Z" transform="translate(-63.066 -455.439)" fill="#dc091d"/>
        <path id="Tracé_137" data-name="Tracé 137" d="M195.19,499.592l-.164-.086-.181-.108-.244-.106-.262-.052h-.219l-.175.027-.131.026-.023-.054.221-.161.284-.112.25-.029h0l.343.055.244.107.172.023.035-.127-.062-.2-.153-.154-.176-.159-.265-.16-.265-.1-.265-.055-.215-.026-.164.05-.1.1-.119.214-.112-.3-.048-.337v-.006l.093-.3.113-.161.195-.18.216-.128.263-.055h.005l.189.031.212.115.142.173.3-.088.006.034.1.622.385.038.008.007.6.612v.012l.056.859-.03,0Zm-.844-.412.272.055.254.11.181.108.148.076,1.012-.137-.05-.791-.573-.588-.411-.041-.1-.633-.272.079-.164-.2-.193-.1-.168-.025-.248.052-.2.119-.185.172-.107.151-.085.284.044.318.066.172.061-.11.125-.115.185-.056.229.029.273.056.274.107.272.166.184.164.166.172.069.227,0,.008-.052.186-.236-.033-.245-.107-.327-.052-.238.027-.265.106-.1.075.18-.026Z" transform="translate(-63.068 -455.441)" fill="#1a1818"/>
        <path id="Tracé_138" data-name="Tracé 138" d="M198.043,496.115l-.62.792.16-1.159-.524.979.113-1.181-.477,1.049.041-1.195-.4,1.032-.012-1.15-.363,1.051-.034-1.127-.336,1.078-.025.03-.155-1.108-.21,1.06-.274-1.06-.119,1.126-.317-1.052.072,1.145.005.008-.005.4-.006.221,0,0h0l0,.173a2.415,2.415,0,0,0,.433.017l1.933.515c.1.087.5.086.48.156l.077-.289s0,.006,0,.009l.106-.425h.006l0-.01.018-.066Z" transform="translate(-63.003 -455.549)" fill="#dc091d"/>
        <path id="Tracé_139" data-name="Tracé 139" d="M197.432,497.927l-.058-.014a.009.009,0,0,0,0,.009.67.67,0,0,0-.179-.046.778.778,0,0,1-.288-.085l-1.928-.514H194.9c-.316.006-.356,0-.373-.025l-.008-.014,0-.012,0-.147-.044-.017.047-.024.005-.2.005-.392,0-.006v-.009l-.071-1.146.059-.011.273.908.1-.976.059,0,.243.932.184-.93h.06l.14,1.006.315-1.011.059.007.03.962.309-.9.059.01.011.993.339-.884.058.012-.035,1.043.414-.911.057.016-.1,1.03.453-.845.056.019-.144,1.048.55-.7.052.031-.439,1.023-.014.052,0,.012v.03h-.012l-.1.4h0Zm-2.421-.7,1.931.517a.733.733,0,0,0,.265.076.9.9,0,0,1,.181.042l.061-.233v-.006h0l.123-.49.349-.813-.544.7.151-1.1-.445.829-.057-.017.1-1-.4.883-.057-.014.034-1.015-.332.863-.058-.011-.012-.977-.306.887-.059-.01-.029-.945-.287.915-.068.085-.011-.07-.129-.93-.175.885-.058,0-.235-.9-.1.959-.058.006-.243-.8.055.875.006.008v.011l-.018.782a2.853,2.853,0,0,0,.317,0c.071,0,.1,0,.108.005" transform="translate(-63.004 -455.55)" fill="#1a1818"/>
        <path id="Tracé_140" data-name="Tracé 140" d="M206.428,516.358v-.24a.894.894,0,0,1-.81-.867c-.024.392-.414.719-.959.851l-1.007.006c-.574-.13-.987-.479-.987-.89l-.011.014c0,.408-.4.754-.966.887l-1,0c-.578-.128-.993-.477-.993-.891h-.027c0,.426-.44.787-1.044.9l-.84,0c-.6-.109-1.043-.454-1.069-.869-.014.415-.446.764-1.038.881l-.849,0c-.586-.107-1.02-.44-1.063-.84-.031.393-.441.725-1,.848h-.95c-.561-.123-.974-.457-1-.853-.047.421-.524.763-1.15.853h-.647c-.631-.09-1.111-.443-1.152-.867a1.025,1.025,0,0,1-.95.843v1.9h19.507Z" transform="translate(-63.452 -454.361)" fill="#003d6f"/>
        <path id="Tracé_141" data-name="Tracé 141" d="M206.495,518.117H186.86V516.1l.053-.01a.972.972,0,0,0,.9-.788h.127c.037.39.488.724,1.1.81h.639c.593-.086,1.044-.414,1.087-.8l.127,0c.022.356.4.675.948.8l.938,0c.527-.118.909-.435.936-.789l.126,0c.039.367.445.681,1.012.785l.836,0c.566-.114.963-.444.976-.82l.127,0c.022.378.431.7,1.017.81l.827-.005c.573-.113.981-.46.981-.841v-.065h.156v.065c0,.371.378.7.942.829l.981-.005c.535-.127.9-.459.9-.823v-.022l.138-.179v.188c0,.368.377.7.938.827l.994-.007c.516-.127.873-.438.9-.791h.127a.837.837,0,0,0,.76.809l.051.011Zm-19.507-.128h19.379v-1.81a.974.974,0,0,1-.76-.636,1.368,1.368,0,0,1-.93.629l-1.022.008a1.37,1.37,0,0,1-.989-.673,1.327,1.327,0,0,1-.961.681l-1.01.006a1.341,1.341,0,0,1-1.005-.7,1.346,1.346,0,0,1-1.047.711l-.852.005a1.414,1.414,0,0,1-1.066-.67,1.382,1.382,0,0,1-1.03.682l-.86,0a1.422,1.422,0,0,1-1.059-.665,1.362,1.362,0,0,1-.99.672l-.964,0a1.365,1.365,0,0,1-1-.677,1.454,1.454,0,0,1-1.136.676h-.657a1.471,1.471,0,0,1-1.147-.687,1.158,1.158,0,0,1-.891.65Z" transform="translate(-63.456 -454.372)" fill="#1a1818"/>
        <path id="Tracé_142" data-name="Tracé 142" d="M194.99,504.457l-.661-.653V503.8h-.006l-.165-.164.024.126-.393-.1.3-.788-1.614-.412-1.684-.654-.841-1.289-1.2.051-.274,1.2-.114.355-.327.043.008.925-.286.872v.719l-.048.563v.618l.093.462-.093.564.048.666-.048.617.048.616.092.564.185.36v.46l.092.618.047.513.139.513.094.513.183-.154.048-.46v-1.594l.047-.922.279.1.14-.464v-.359l.183.1.184-.31.053-.351.135.147.23-.206.137-.514.141.1.28-.2.138-.464,0-.031.068.048.242-.039-.035.384.185.255.231-.051.186.255.278.1.051-.17.089.271.231.155.324-.052.372.1.138-.412v-.613l-.047-.617-.029-.154h.083l-.022.3.185.306.232-.062.186.31.276.122.094-.37.045-.738v-.417l.091.44.231.209.138-.464v-.718l-.022-.362.281,1.381.232.2.138-.461v-.718Z" transform="translate(-63.405 -455.234)" fill="#dc091d"/>
        <path id="Tracé_143" data-name="Tracé 143" d="M188.387,512.382l-.1-.564-.14-.51-.046-.519-.093-.616v-.457l-.185-.363-.091-.564-.049-.619.049-.621-.049-.663.093-.565-.093-.457v-.623l.049-.566v-.727l.284-.865-.01-.947.336-.046.109-.336.278-1.218,1.243-.052.01.014.836,1.281,1.676.65,1.644.419-.3.788.314.081-.035-.177.227.226h.018l.005.022.661.654v.012l.047.718v.729l-.151.506-.274-.244,0-.01-.2-.978v.68l-.151.51-.274-.247-.033-.159v.121l-.046.74-.1.41-.319-.141,0-.007-.175-.291-.232.063-.156-.259.03.389,0,.626-.147.439-.393-.108L192.1,508l-.249-.167-.062-.19-.033.108-.316-.119-.181-.248-.231.052-.2-.281.033-.356-.216.035-.038-.028-.137.461-.305.224-.124-.09-.127.48-.26.232-.111-.122-.048.3-.2.335-.164-.092v.316l-.149.495-.27-.1-.044.88v1.592l-.049.476Zm-.507-3.041.186.37v.46l.092.612.046.516.139.506.086.464.133-.112.047-.448v-1.59l.049-.965.287.108.129-.429v-.407l.2.115.166-.28.061-.407.157.171.2-.179.145-.548.16.115.253-.185.135-.453.005-.077.1.071.269-.043-.038.411.166.23.231-.051.194.264.238.09.069-.23.115.352.213.143.318-.051h.006l.344.1.128-.38v-.609l-.047-.613-.035-.186h.153l-.024.318.168.28.232-.062.193.321.235.1.085-.335.044-.733v-.415l.059-.006.089.43.189.169.123-.414v-.713l-.022-.361.06-.007.279,1.371.189.167.123-.412v-.713l-.047-.706-.754-.745.016.076-.474-.122.3-.788-1.582-.4-1.7-.658-.005-.009-.832-1.274-1.162.05-.268,1.175-.122.375-.32.042.008.9v.005l-.284.866v.714l-.049.566v.614l.093.462v.005l-.093.564.049.66-.049.621.049.611Zm5.028-3.09.01.053,0-.053Z" transform="translate(-63.407 -455.236)" fill="#1a1818"/>
        <path id="Tracé_144" data-name="Tracé 144" d="M205.637,505.436l-.047-.566v-.716l-.254-.78c-.01-.084-.02-.168-.031-.251l.008-.766-.149-.019a4.2,4.2,0,0,0-.438-1.22c-.274-.389-1.738.3-2.244.367s-1.261.205-1.261.205a1.473,1.473,0,0,1-.872.963,4.165,4.165,0,0,1-1.626.183l-.286,1.1-.611.6-.044.718v.719l.139.462.231-.208.156-.766v.627l.14.462.231-.205.283-1.393-.023.376v.717l.139.463.231-.207.089-.463v.439l.046.738.094.369.278-.12.184-.309.232.06.185-.305-.022-.3h.085l-.033.155-.043.615v.615l.138.409.37-.1.326.051.231-.152.089-.27.051.168.275-.1.185-.257.234.052.184-.257-.034-.381.243.04.068-.048,0,.032.139.461.279.206.138-.1.14.515.232.2.131-.145.053.35.185.309.186-.1v.358l.137.461.28-.1.046.924v1.59l.047.462.185.156.093-.515.138-.514.047-.513.094-.615V509.9l.183-.359.093-.564.047-.615-.047-.618.047-.666-.093-.564.093-.462Z" transform="translate(-62.808 -455.205)" fill="#dc091d"/>
        <path id="Tracé_145" data-name="Tracé 145" d="M204.964,512.577l-.235-.2v-.013l-.046-.461v-1.593l-.043-.882-.272.1-.146-.5v-.306l-.168.092-.2-.345-.043-.286-.108.12-.261-.231,0-.009-.128-.471-.121.09-.3-.224,0-.011-.135-.448-.038.026-.216-.036.031.354-.006.01-.2.273-.232-.053-.179.25-.315.118-.033-.107-.062.189-.008.006-.242.159-.331-.052-.391.108-.148-.446v-.615l.028-.387-.155.253-.232-.06-.178.3-.008,0-.31.135-.1-.4-.046-.744v-.122l-.031.16-.008.007-.266.237-.155-.518v-.675l-.2.992-.007.007-.266.236-.155-.516v-.325l-.1.48-.274.246-.155-.516v-.719l.047-.732.008-.009.6-.594.29-1.112.025,0a4.142,4.142,0,0,0,1.611-.181,1.454,1.454,0,0,0,.854-.942l.005-.019.019,0c.007,0,.763-.138,1.262-.206a5.052,5.052,0,0,0,.672-.189c.656-.213,1.4-.453,1.6-.165a4.206,4.206,0,0,1,.438,1.209l.155.02v.028l-.008.766c.011.078.021.164.03.248l.254.782v.717l.048.566v.614l-.093.463.093.558-.048.674.048.612-.048.622-.1.574-.179.353v.456l-.094.62-.047.511-.14.519Zm-.177-.229.136.114.085-.464.139-.516.046-.507.094-.617,0-.472.18-.355.092-.558.048-.614-.048-.612.048-.671-.094-.562v-.005l.093-.462v-.608l-.048-.564v-.715l-.253-.774c-.01-.09-.02-.175-.031-.257l.007-.743-.143-.019-.005-.02a4.123,4.123,0,0,0-.432-1.209c-.176-.251-.961,0-1.533.188a4.8,4.8,0,0,1-.682.191c-.453.063-1.121.18-1.24.2a1.515,1.515,0,0,1-.886.965,4.155,4.155,0,0,1-1.613.186l-.282,1.079-.006.005-.6.592-.046.708v.713l.125.411.189-.168.153-.756.06.006v.622l.125.413.187-.167.281-1.384.06.007-.024.376v.711l.124.413.189-.167.087-.453.059.006v.439l.046.736.086.328.235-.1.192-.32.232.06.168-.278-.024-.32h.155l-.04.192-.043.611v.609l.128.377.349-.1.32.05.214-.141.115-.351.068.229.238-.088.192-.267.233.052.166-.232-.036-.41.268.046.1-.071.006.085.135.445.252.185.156-.118.149.55.2.178.155-.17.061.407.167.28.207-.114v.4l.126.427.287-.1.048.965V511.9Zm-4.358-5.907,0,.052.012-.052Z" transform="translate(-62.809 -455.207)" fill="#1a1818"/>
        <path id="Tracé_146" data-name="Tracé 146" d="M190.8,517.32a1.616,1.616,0,0,1-1.481-.717,1.9,1.9,0,0,1-2.937-.008,1.025,1.025,0,0,1-.572.485l-.053-.127a.771.771,0,0,0,.552-.6c0-.024,0-.048,0-.071v-.024l.137-.172.008.185c0,.028,0,.054,0,.082.058.449.666.8,1.406.8s1.328-.344,1.4-.784c0-.021,0-.042,0-.064l.005-.025.01-.026.133.025a.689.689,0,0,1-.006.093c.054.452.664.809,1.406.809s1.355-.359,1.407-.814a.687.687,0,0,1-.005-.081l.131-.029.015.047a.572.572,0,0,1,0,.06c.065.446.67.8,1.4.8.755,0,1.373-.37,1.408-.835a.562.562,0,0,1,0-.059l.136-.015,0,.019c0,.013,0,.024,0,.038.036.464.654.835,1.409.835.777,0,1.408-.394,1.408-.877V516.2h.165v.069c0,.483.632.877,1.409.877s1.41-.394,1.41-.877v-.019l.146-.242v.246a.891.891,0,0,0,.653.737l-.051.128a1.2,1.2,0,0,1-.672-.567,1.871,1.871,0,0,1-2.978-.016,1.585,1.585,0,0,1-1.491.746,1.623,1.623,0,0,1-1.475-.706,1.6,1.6,0,0,1-1.479.724,1.629,1.629,0,0,1-1.467-.7,1.619,1.619,0,0,1-1.48.715" transform="translate(-63.521 -454.315)" fill="#fff"/>
        <path id="Tracé_147" data-name="Tracé 147" d="M196.371,517.337a1.618,1.618,0,0,1-1.482-.718,1.9,1.9,0,0,1-2.939-.008,1.034,1.034,0,0,1-.571.485l-.054-.126a.779.779,0,0,0,.554-.6.5.5,0,0,1,0-.069v-.02l.138-.215.008.221a.694.694,0,0,1,0,.083c.058.451.665.806,1.4.806s1.329-.345,1.4-.785c0-.022,0-.043,0-.066l.005-.025.011-.026.131.027a.675.675,0,0,1-.006.092c.055.452.666.81,1.408.81s1.348-.356,1.4-.807a.853.853,0,0,1-.005-.09l.129-.033.018.052c0,.023,0,.047,0,.069.072.442.674.789,1.4.789.754,0,1.371-.371,1.408-.835a.553.553,0,0,1,0-.058l.136-.018.006.034v.04c.048.456.659.819,1.406.819.778,0,1.41-.393,1.41-.875v-.069h.163v.069c0,.482.632.875,1.409.875s1.411-.393,1.411-.875v-.019l.147-.245v.246c0,.3.244.574.652.738l-.052.128a1.2,1.2,0,0,1-.669-.569,1.872,1.872,0,0,1-2.979-.01,1.588,1.588,0,0,1-1.492.744,1.627,1.627,0,0,1-1.471-.7,1.613,1.613,0,0,1-1.48.719,1.637,1.637,0,0,1-1.469-.7,1.613,1.613,0,0,1-1.478.715" transform="translate(-63.191 -454.314)" fill="#fff"/>
        <path id="Tracé_148" data-name="Tracé 148" d="M203.407,510.657l-.1-.14-.118-.1-.151-.14-.165-.08-.171-.039h-.234l-.075.005.024-.026.188-.1.2-.037.056-.007.013,0,.2-.08.151.02.1.082.118.1.05.182.053-.141-.02-.224-.033-.18-.067-.163-.133-.14-.135-.1h0l-.014-.062-.167-.16-.186-.019-.218.1-.184.079-.184.164-.2.16-.235.143-.219.16-.252.121-.178.072-.275-.091-.268-.082-.269-.121-.287-.162-.234-.121-.235-.14-.252-.224-.2-.2-.139-.161-.2-.224-.186-.219-.218-.282-.722-.182.5,1.269.218.2.234.139.27.244.353.223.3.14.27.08.3.08.219.041.318.162.135.059-.284.06-.2.021-.2.019-.218.02-.185.041-.168.1-.132.142-.068.239.021.138,0,.005-.05.2-.018.181.018.2.084.122.1.139.137.041.166.02h.135l.118-.039-.1-.022-.137-.018-.084-.121-.068-.122v-.162l.031-.072.054.012.117-.039.087-.122.066-.122.049-.139.068-.143.153.04.235.018.234-.018.185-.061.135-.058.135-.122.1.039.136.083.166.1.186.123.167.12.135.1.033.082-.033.119v.163l.05.14.151.081.031.01.019.112.084.161.051.161-.033.161-.1.1-.117.081-.2.02.1.082.168.019.1-.04.1-.081.135-.1.1-.16.051-.2.017-.222-.017-.18-.041-.078.022-.022.019-.182-.035-.139-.117-.1v-.142l-.068-.119-.1-.1-.136-.16-.167-.122h.085l.118-.02.135-.02.135-.019h.251l.051.059-.084.061.033.162.085.182.133.081.018.059.05.141v.162l-.016.16-.069.122h.069l.118-.1.117-.143.034-.139.036-.164.015-.179-.025-.082.059-.061.051-.161-.034-.161Z" transform="translate(-62.817 -454.796)" fill="#dc091d"/>
        <path id="Tracé_149" data-name="Tracé 149" d="M202.254,513.01h-.007l-.178-.02-.165-.133.268-.028.11-.076.091-.09.031-.144-.05-.155-.085-.164-.015-.094-.014,0-.167-.088-.055-.161v-.172l.031-.109-.026-.064-.128-.1-.166-.12-.185-.122-.3-.182-.078-.03-.129.114-.135.059-.189.061-.242.02-.239-.018-.133-.035-.056.12-.048.136-.069.127-.094.132-.132.045-.038-.007-.019.043v.148l.065.114.074.107.123.017.208.047-.23.074h-.136l-.169-.019-.151-.046-.006-.008-.189-.268v-.007l-.018-.2.018-.186.053-.212-.021-.132,0-.006.075-.252.139-.146.177-.1.185-.041.626-.061.191-.04-.05-.021-.316-.16-.215-.041-.3-.081-.27-.081-.306-.141-.356-.225-.273-.247-.229-.136-.232-.218-.527-1.325.79.2.225.289.185.219.335.385.2.2.25.221.231.137.233.121.288.162.267.12.264.081.266.087.167-.067.25-.121.214-.158.238-.143.2-.159.192-.167.184-.079.226-.1.2.02.007.007.174.166.014.057.129.1.144.152.067.163.035.186.02.233,0,.006-.086.229-.072-.265-.11-.093-.093-.076-.136-.018-.2.083-.016-.005-.05.006-.193.035-.118.064h.206l.177.04.179.087.151.14.117.1.11.146.069.112.036.168,0,.007-.058.174-.047.049.021.069-.015.185-.076.32-.117.143-.13.111h-.131l.091-.162.015-.154v-.154l-.063-.185-.132-.08,0-.008-.084-.181-.038-.189.072-.053-.02-.023h-.237l-.379.058.093.068.14.165.1.107.072.126v.137l.113.1,0,.01.036.144-.021.2-.014.014.034.069.016.181-.016.227-.055.216-.108.167-.243.186Zm-.161-.079.153.017.088-.036.1-.078.13-.1.1-.15.05-.2.016-.217-.016-.17-.05-.092.031-.03.018-.167-.032-.125-.12-.1v-.148l-.063-.108-.1-.1-.137-.162-.237-.171h.177l.113-.02.27-.039h.269l.082.094-.1.069.03.144.077.166.138.081.02.071.051.149v.162l-.02.175-.042.077h.005l.109-.093.108-.134.069-.3.013-.171-.029-.091.067-.07.047-.147-.031-.147-.063-.1-.1-.139-.113-.1-.149-.138-.161-.078-.164-.036h-.227l-.148.011.083-.089.2-.1.2-.037.057-.007h.007l.008,0,.2-.08.168.023.231.194.028.1.018-.047-.019-.216-.033-.178-.062-.151-.13-.137-.122-.092h-.015l-.008-.023-.012-.053-.154-.147-.167-.017-.211.1-.181.078-.181.16-.2.162-.239.144-.216.159-.257.124-.19.076-.287-.094-.267-.082-.272-.122-.289-.163-.233-.121-.237-.141-.256-.227-.2-.2-.523-.607-.211-.274-.657-.165.481,1.209.213.2.229.136.274.247.35.22.3.138.266.078.3.079.226.044.318.161.218.1-.376.081-.626.06-.177.04-.16.1-.125.132-.064.227.022.143-.007.01-.05.2-.017.177.017.19.173.245.127.038.16.019.135,0-.138-.019-.091-.131-.073-.13,0-.182.041-.1.071.015.1-.033.082-.113.065-.119.047-.136.079-.168.177.048.229.017.23-.018.178-.06.128-.055.145-.131.118.046.306.185.188.123.168.121.142.107.039.1-.034.126v.154l.044.124.141.075.043.013.021.126.082.157.055.174-.036.178-.007.006-.1.1-.127.09h-.008l-.129.014Z" transform="translate(-62.82 -454.799)" fill="#1a1818"/>
        <path id="Tracé_150" data-name="Tracé 150" d="M194.641,508.082l-.219.283-.186.221-.193.22-.141.162-.2.2-.254.221-.234.141-.235.122-.285.161-.27.121-.267.082-.276.09-.178-.07-.254-.122-.218-.162-.231-.142-.2-.158-.184-.164-.185-.08-.219-.1-.184.019-.167.161-.013.061h0l-.135.1-.135.139-.067.161-.034.182-.016.222.05.14.049-.18.119-.1.1-.082.153-.02.2.079.008,0a.788.788,0,0,0,.1.016l.164.03.184.1.023.027-.075-.006h-.235l-.167.041-.168.079-.148.141-.119.1-.1.141-.068.1-.035.161.051.162.058.06-.024.079.018.18.031.164.036.141.117.141.118.1h.067l-.067-.121-.016-.162v-.162l.051-.139.016-.06.136-.082.084-.182.032-.16-.085-.061.053-.059h.251l.135.021.135.018.118.02h.084l-.168.121-.133.163-.1.1-.068.122v.141l-.119.1-.032.141.016.18.024.022-.04.078-.018.182.018.222.05.2.1.162.135.1.1.079.1.04.167-.02.1-.081-.2-.019-.118-.08-.1-.1-.034-.16.052-.162.084-.163.02-.108.03-.012.15-.082.052-.14v-.163l-.035-.119.035-.08.135-.1.167-.121.185-.121.168-.1.132-.079.1-.04.133.12.136.063.185.059.233.019.237-.019.149-.04.068.141.051.14.067.123.085.121.115.039.056-.01.03.072v.16l-.068.122-.083.12-.136.021-.1.019.117.042h.135l.167-.021.136-.04.1-.141.084-.122.017-.2-.017-.182-.051-.2,0-.005.022-.137-.068-.242-.135-.141-.17-.1-.185-.041-.216-.02-.2-.019-.2-.021-.286-.059.136-.059.32-.163.217-.04.3-.079.267-.082.3-.141.353-.224.27-.243.235-.139.217-.2.5-1.269Z" transform="translate(-63.302 -454.796)" fill="#dc091d"/>
        <path id="Tracé_151" data-name="Tracé 151" d="M190.74,513.015l-.007,0-.109-.046-.1-.079-.14-.107-.106-.171-.049-.2-.019-.226.021-.2.03-.057-.017-.015-.016-.2v0l.033-.152.117-.1,0-.142.073-.128.1-.1.137-.167.093-.066-.113-.019-.269-.039h-.233l-.021.023.074.053-.037.179-.089.2-.133.081-.014.049-.049.137v.157l.016.154.087.159h-.128l-.126-.106-.126-.157-.036-.142-.033-.165-.018-.19.021-.067-.053-.06-.053-.17.041-.178.066-.1.106-.147.12-.1.156-.145.169-.079.172-.043h.214l-.113-.06-.16-.03c-.034,0-.06-.008-.089-.014l-.011,0-.205-.082-.136.018-.2.171-.073.264-.084-.236.018-.229.033-.185.075-.177.133-.139.135-.1.012-.055.181-.176.2-.021.228.1.193.086.183.163.2.158.231.139.22.164.248.12.166.065.265-.087.269-.082.266-.121.284-.159.236-.123.232-.14.249-.217.2-.2.334-.381.184-.22.225-.291.01,0,.781-.195-.022.055-.512,1.281-.218.2-.24.143-.264.239-.357.227-.308.142-.27.084-.3.08-.215.04-.367.182.194.04.617.059.2.046.175.1.142.154.069.249-.02.132v0l.05.2.017.185-.017.214-.195.279-.145.042-.172.022H193.1l-.221-.079.333-.06.076-.109.061-.111v-.147l-.019-.043-.037.006-.133-.044-.09-.128-.069-.126-.052-.145-.056-.114-.126.034-.24.019-.24-.018-.191-.06-.147-.07-.12-.107-.085.033-.3.18-.186.12-.164.12-.128.1-.028.061.034.118,0,.174-.057.15-.177.094-.02.1-.084.163-.048.151.031.143.094.093.107.073.27.027-.168.132Zm-.083-.1.091.036.15-.018.036-.029-.135-.013-.006-.005-.118-.081-.111-.109-.038-.177,0-.008.052-.162.084-.163.023-.121.044-.017.137-.075.048-.124V511.7l-.038-.126.05-.1.133-.1.167-.122.188-.122.3-.182.124-.049.144.129.131.06.181.058.229.018.23-.019.169-.047.079.163.051.143.066.12.076.109.1.033.071-.012.04.106,0,.175-.067.122-.092.133-.138.022.007,0h.13l.163-.021.121-.036.173-.248.016-.193-.017-.176-.054-.216.02-.129-.063-.229-.126-.131-.161-.1-.182-.04-.617-.06-.381-.078.221-.1.326-.164.217-.04.3-.079.266-.082.3-.139.35-.222.266-.238.239-.143.208-.193.48-1.209-.655.163-.213.274-.185.224-.335.382-.2.2-.254.222-.239.144-.236.123-.285.161-.271.122-.272.084-.286.093-.189-.074-.255-.123-.222-.166-.231-.139-.206-.161-.182-.161-.394-.176-.165.017-.153.148-.016.076h-.02l-.126.1-.126.132-.066.155-.031.177-.017.213.016.043.026-.1.234-.193h.008l.159-.021.2.077.005,0,.008,0a.809.809,0,0,0,.094.016l.176.033.194.106.07.084-.148-.013h-.233l-.159.04-.159.076-.146.138-.118.1-.1.138-.062.1-.033.147.047.148.066.069-.029.089.017.175.032.161.033.132.113.137.109.088-.046-.087-.016-.162V511.5l.051-.139.018-.071.139-.083.079-.174.026-.135-.1-.069.084-.094h.266l.391.059h.173l-.242.173-.13.16-.1.1-.061.11v.147l-.011.009-.111.1-.028.127.013.164.033.029-.047.094-.018.177.018.216.047.193.1.153.129.1Z" transform="translate(-63.304 -454.798)" fill="#1a1818"/>
        <path id="Tracé_152" data-name="Tracé 152" d="M206.287,502.807l-.047-.513-.14-.411-.183-.306-.233-.36a2.828,2.828,0,0,0-.369-.623,2,2,0,0,0-1.159-.5.8.8,0,0,0-.783.513c-.052.163-.13.913-.31.988s-.471-.069-.668-.224-.413-.351-.679-.179-.078,1.3-.568,1.513c-.139.059-.387-.155-.525-.146s-.7.394-.951.317-.568-.473-.707-.644a2.124,2.124,0,0,0-.4-.347l-.225-.214-.135-.215-.023-.06a1.942,1.942,0,0,1-.215-.888c-.012-.251.068-.949.035-1.318s-.115-.857-.138-1a1.008,1.008,0,0,1-.053-.357v-.012l-.211-.266-.05-.051a.3.3,0,0,1-.057-.045.679.679,0,0,0-.074-.055l-.1-.082-.077-.052a5.776,5.776,0,0,0-.823-.314l-.112-.021-.269-.028-.267-.053h-.449l-.158.053-.089.135-.067.163.156.188.112.188.135.214.145.263.155.353.122.25.1.145.121.271v.27l-.208.144-.243.022-.138-.022.233.267.18.164.111.131v.244l-.067.242-.09.188-.09.242-.021.188c-.035.072-.173.137-.414.361a2.1,2.1,0,0,0-.352.55c-.085.1-.275.127-.351.207s-.174.341-.286.368a3.007,3.007,0,0,1-.79-.241c-.222-.084-.257-.042-.439.077s-.506-.257-.61-.429-.006-.825-.155-1.014-.456-.112-.608.006-.551.388-.824.327-.276-1-.475-1.211a.85.85,0,0,0-1.021-.224,1.516,1.516,0,0,0-.939.7l-.188.359-.229.36-.185.305-.14.413-.047.513-.044.565.044.615.094.41.183.1.094-.205.139-.36.139-.358.139-.412.093-.409.093.359.091.257.234.1.23-.1.185-.309.092-.307.048-.411.14.463.137.357.186.208.278.05.231-.2v-.358l.28.3.23.157.278.255.232.206h.325l.183.307.188-.05.183.2h.232l.186-.155.139-.307.279.257.232-.052.176.267.456.232.36.4.554.113.017.013-.021.1.022.24.045.3.048.148.019.065-.022.135.022.241.033.122.015.039-.048.189v.243l-.022.215-.111.188-.112.136-.158.161-.155.215-.113.267-.068.217-.023.27h-.289l-.292.106-.133.162v.214l.067-.187.158-.107.156-.056.271.028-.249.136-.111.214.135-.107.135-.079h.155l.181-.028-.2.161-.179.268-.089.3.068.159.043-.188.089-.215.112-.082.181-.052h.155l.2-.055-.09.189-.113.189-.133.136-.2.106.158.028.156-.028.157-.081.18-.161-.091.214-.043.191-.09.213-.157.163.18.024.179-.107.159-.215.177-.214-.113.243-.064.214-.114.243-.247.213-.2.083.089.054h.2l.2-.027.2-.054.224-.084.135-.134.2-.158-.046.185-.09.19-.067.189.136-.162.089-.135.133-.3.023.16-.046.244-.044.189-.089.188-.157.16-.113.109-.178.107-.245.081-.271.028-.291.028-.358-.028-.225-.134-.222-.082.11.135.112.16.157.162.178.136.2.079.245.028.225-.028.246-.026.2-.079.158-.109.179-.214.023.293-.068.216-.067.189-.091.162-.156.188-.2.188-.178.161-.2.081-.2.079-.248.084-.246.027-.313.028-.269.026h-.268l-.248.055-.2.052-.225.135-.179.134-.112.161-.088.163-.022.24.022.189.088.216.112.107.135.053.156.028.157-.053.136-.189-.112.108-.112.081h-.136l-.133-.081-.066-.162v-.162l.021-.189.09-.187.179-.163.225-.081.247-.053.2.028h.27l-.179.106-.136.189-.067.268.022.217.111.16.181.135h.268l-.112-.053-.135-.161-.044-.189.044-.216.135-.161.18-.081.246-.026.268-.082.225-.106.314-.081.224-.161.226-.162.222-.215.158-.215.2-.322-.021.322v.27l-.112.24-.111.216-.18.188-.2.214-.18.161-.157.162-.18.133-.224.055h-.225l-.2-.026-.18-.053-.247-.217.178.217.158.159.222.11.158.078.247-.025.29-.081.2-.108.2-.162.2-.136.2-.24.177-.187-.066.135.022.213-.022.245-.023.269-.088.241-.113.136-.157.081-.246-.028.178.107h.2l.156-.026.2-.107v.186l.024.269.089.3.089.214.046-.186.066-.244.069-.294.044-.241.022-.162.135.162.157.107.157.079.246-.053-.179-.079-.089-.135-.112-.19-.066-.16-.047-.217-.02-.16.042-.269.16.215.131.19.247.133.18.079.18.082.268.028.224-.081.224-.054.18-.163.156-.133.135-.243-.088.107-.136.08-.135.055-.156.054-.158.027-.224-.081-.224-.108-.226-.107-.179-.133-.157-.135-.112-.215-.111-.268-.135-.352-.088-.4-.047-.484-.046-.619.092.324.11.269.157.295.179.215.247.269.2.215.222.135.267.161.27.135.269.054.156.08.158.108.089.135.068.242v.243l-.089.162-.292.162.225-.027.178-.108.136-.162.089-.216v-.213l-.066-.244-.133-.243-.2-.158-.314-.109.222.028h.74l.292.082.29.133.2.135.179.188.136.214.066.323v.431l.09-.322v-.3l-.067-.295-.136-.241-.2-.216-.247-.187-.337-.136-.269-.108-.313-.025h-.718l-.337-.082-.267-.107-.268-.187-.225-.216-.158-.188-.111-.3-.113-.268-.222-.322.222.189.18.188.224.161.337.137.314.025.381-.025.245-.084.225-.162.247-.292.18-.351-.135.215-.18.161-.2.108-.247.079-.269.028-.337-.054-.313-.053-.248-.134-.269-.216-.179-.3-.157-.27-.11-.347.11.268.157.216.225.215.2.054-.248-.189-.112-.19-.111-.215-.157-.482.157.293.18.243.178.133.2.11h.225l.157-.083.067-.079-.179.024h-.178l-.2-.106-.136-.185-.111-.27v-.351l.046-.268.021-.324.067.351.157.242.2.242.246.269.133.35.09.19.089-.271-.044-.239-.135-.324.2.242.111.27.111.43.023-.378V510l-.092-.269-.066-.269.135.134.18.216.135.188.09.189.088.268.067.19.067-.269v-.324l-.067-.268-.111-.214-.18-.323.2.108.114.133.135.215.132.324.091-.029-.047-.348-.067-.269-.135-.243-.068-.163.159.054.157.083.222.216-.156-.325-.247-.348-.157-.3-.136-.322-.133-.324-.269-.322-.2-.24-.18-.08.092-.351.065-.323V506l.007-.07.082-.228.047-.349.022-.324.918-.139.36-.4.454-.234.177-.267.231.05.28-.256.139.306.184.156h.234l.183-.206.185.05.186-.306h.325l.229-.2.279-.26.232-.153.28-.306v.357l.228.207.28-.052.186-.205.139-.359.139-.462.046.411.094.308.184.307.23.1.234-.1.091-.256.092-.359.1.41.138.412.139.358.14.358.092.207.184-.1.093-.41.046-.617Z" transform="translate(-63.411 -455.451)" fill="#dc091d"/>
        <path id="Tracé_153" data-name="Tracé 153" d="M196.377,515.986l-.125-.3-.09-.3-.027-.274v-.14l-.164.087-.156.028H195.6l-.007,0-.178-.108.019-.055.237.027.143-.074.106-.126.086-.233.044-.508-.021-.2-.06.065-.208.246-.2.135-.2.161-.207.11-.3.083-.26.029-.007,0-.39-.194-.157-.16-.18-.219.043-.041.242.213.174.051.194.025h.22l.211-.053.175-.13.154-.159.181-.163.377-.4.109-.212.109-.233v-.264l.013-.2-.137.22-.158.218-.227.217-.463.332-.312.081-.22.1-.271.084-.247.028-.17.074-.125.15-.041.2.041.176.125.15.107.05-.014.058h-.278l-.2-.147-.117-.167v-.008l-.022-.221v-.005l.072-.28.145-.2.084-.051h-.16l-.2-.026-.243.052-.215.077-.171.155-.085.177-.021.183v.154l.06.146.119.071h.117l.1-.075.108-.1.046.039-.14.2-.174.058-.164-.029-.15-.06-.119-.117-.09-.226-.023-.187.026-.26.089-.162.12-.172.179-.133.236-.14.2-.052.249-.055h.274l.266-.027.314-.028.246-.027.24-.081.4-.158.376-.345.154-.184.088-.158.065-.184.067-.209-.018-.214-.137.162-.158.11-.216.085-.469.054-.261-.03-.211-.084-.178-.136-.161-.165-.114-.164-.18-.217.327.119.225.132.35.028.557-.055.238-.079.172-.1L195.7,511l.153-.156.087-.182.042-.183.046-.236-.008-.053-.091.2-.091.139-.138.165-.051-.03.067-.19.09-.192.023-.1-.133.1-.143.139-.224.083-.2.055-.207.026H194.7l-.147-.09.253-.1.237-.205.111-.236.063-.21.016-.034-.028.033-.167.222-.189.111-.249-.034.195-.2.087-.208.043-.186.04-.094-.087.075-.165.084-.161.029h-.005l-.246-.042.278-.145.13-.132.108-.183.06-.126-.147.038h-.15l-.172.05-.1.073-.086.208-.062.273-.109-.255.1-.316.185-.274.113-.091-.069.011h-.151l-.127.076-.131.1-.046-.038.115-.223.171-.093-.167-.017-.148.054-.143.1-.064.179-.058-.011v-.226l.146-.176.007,0,.3-.108h.262l.02-.242.07-.224.113-.27.159-.22.16-.165.112-.134.1-.178.021-.209v-.239l.046-.187-.012-.031-.033-.125-.023-.246.021-.136-.065-.206-.046-.3-.022-.248.017-.084-.553-.113-.006-.007-.357-.4-.458-.233-.168-.256-.228.051-.258-.239-.129.28-.195.162h-.257l-.179-.2-.192.051-.186-.311h-.32l-.008-.009-.232-.2-.279-.256-.226-.154-.232-.252v.294l-.252.222-.3-.055-.007-.007-.193-.216-.137-.357-.1-.325-.03.265-.094.313-.193.324-.251.111-.258-.112-.1-.269-.063-.242-.066.288-.139.415-.279.719-.108.236-.223-.125,0-.014-.1-.41-.046-.62.046-.569.047-.513.142-.421.188-.311.229-.36.185-.357a1.528,1.528,0,0,1,.959-.718.884.884,0,0,1,1.051.231,1.371,1.371,0,0,1,.192.567c.061.285.129.607.267.636.294.065.748-.282.8-.321a.613.613,0,0,1,.429-.124.327.327,0,0,1,.222.123,1.2,1.2,0,0,1,.1.59,1.236,1.236,0,0,0,.053.426c.081.132.3.4.47.433a.119.119,0,0,0,.1-.014l.036-.024a.36.36,0,0,1,.43-.056l.037.014a3.038,3.038,0,0,0,.734.227c.058-.014.122-.124.174-.213a.746.746,0,0,1,.1-.148.488.488,0,0,1,.163-.092.483.483,0,0,0,.186-.111.689.689,0,0,0,.074-.139,1.156,1.156,0,0,1,.28-.414c.117-.109.211-.181.279-.234a.52.52,0,0,0,.126-.113l.021-.182.091-.248.091-.192.065-.231v-.229l-.1-.123-.177-.162-.291-.333.217.035.231-.02.189-.131v-.248l-.119-.265-.1-.14-.123-.254-.156-.354-.144-.261-.133-.213-.112-.187-.164-.2.073-.179.1-.149.177-.058h.449l.273.054.266.028.114.021.138.046a4.535,4.535,0,0,1,.694.271l.081.054.107.083a.726.726,0,0,1,.075.056.291.291,0,0,0,.054.041l.055.055.219.277v.022a.689.689,0,0,0,.032.27.824.824,0,0,1,.02.082l0,.011c.024.156.1.63.136.988a6.482,6.482,0,0,1-.017.845c-.012.2-.021.373-.017.474a1.919,1.919,0,0,0,.211.875l.025.064.132.21.219.209.047.034a1.815,1.815,0,0,1,.358.316c.137.171.451.561.692.635.148.047.442-.1.656-.2a1.05,1.05,0,0,1,.285-.115h.011a.6.6,0,0,1,.228.077c.1.046.212.1.276.071.267-.119.322-.536.37-.9.037-.283.069-.528.193-.607.267-.171.482,0,.672.147l.043.033c.2.16.477.288.638.22.119-.05.2-.481.245-.738.019-.1.035-.186.049-.231a.831.831,0,0,1,.811-.535h.02a2.074,2.074,0,0,1,1.159.513,1.268,1.268,0,0,1,.248.388c.039.078.079.16.127.241l.232.359.183.307.143.416.049.521.046.565-.046.621-.1.428-.226.125-.1-.236-.28-.718-.139-.413-.068-.292-.061.239-.1.272-.257.113-.251-.112-.005-.008-.183-.308-.1-.315-.03-.269-.1.32-.146.371-.194.214-.3.055-.249-.225v-.292l-.229.248-.236.158-.275.256-.237.211h-.32l-.189.313-.191-.052-.179.2h-.258l-.2-.174-.122-.268-.26.238-.227-.049-.17.256-.007,0-.449.232-.364.4-.9.138-.02.3-.047.351-.084.234-.005.063v.4l-.066.328-.086.327.167.077.475.571.27.646.155.3.245.343.16.329-.049.035-.22-.212-.154-.082-.09-.031.042.1.136.247.067.269.051.377-.142.042-.143-.349-.132-.211-.108-.126-.1-.056.129.233.111.215.071.274v.332l-.093.375-.1-.286-.088-.268-.089-.184-.131-.183-.178-.214-.057-.056.041.163.091.278v.267l-.022.38-.059.005-.112-.43-.108-.262-.073-.087.059.142.048.253,0,.007-.112.343-.119-.248-.1.11-.171.087-.239,0-.2-.11-.187-.142-.179-.242.053.16.109.211.108.183.243.184-.025.054-.215-.061-.226-.215-.045-.062.092.159.176.291.265.213.239.128.64.1.265-.026.24-.078.2-.106.171-.154.132-.212.053.03-.18.351-.251.3-.237.171-.253.086-.381.025-.327-.028-.337-.138-.229-.163-.184-.192-.047-.04.093.136.117.273.109.294.155.184.222.213.265.185.261.1.333.08h.711l.324.028.612.247.248.188.2.219.143.256.067.294v.308l-.09.325-.059-.007v-.432l-.065-.31-.131-.209-.177-.183-.2-.13-.287-.131-.284-.08h-.7l.075.028.212.167.132.242.07.259,0,.225-.094.224-.142.169-.191.111-.226.027-.018-.056.286-.158.081-.148v-.23l-.066-.232-.084-.126-.153-.106-.149-.075-.272-.055-.27-.135-.5-.3-.2-.216-.247-.269-.18-.215-.16-.3-.111-.271-.013-.043.024.324.047.483.086.4.135.347.111.267.108.208.153.13.177.132.444.212.214.076.15-.025.15-.052.133-.054.126-.076.085-.1.05.034-.141.25-.156.134-.194.171-.222.053-.228.083H198l-.276-.03-.36-.161-.26-.143-.131-.19-.117-.157-.031.193.02.157.046.213.064.156.111.185.084.126.255.114-.347.074-.166-.085-.166-.115-.09-.109-.014.094-.044.242-.068.3-.068.244Zm-.181-1.113v.237l.024.266.089.289.052.127.023-.1.067-.244.069-.293.043-.239.032-.228.176.21.153.1.144.073.145-.031-.1-.046-.005-.008-.088-.135-.114-.191-.067-.164-.048-.221-.022-.167v0l.054-.34.2.274.128.183.24.13.353.158.256.027.218-.079.218-.051.175-.159.153-.131.032-.057-.082.049-.139.056-.157.055-.171.029-.232-.084-.451-.215-.183-.137-.166-.145-.112-.215-.112-.27-.136-.352-.089-.408-.047-.488-.046-.619.058-.011.093.324.108.266.156.292.176.21.246.267.2.213.486.293.264.131.273.055.156.079.169.119.093.144.069.249,0,.256-.093.171-.162.09.062-.007.168-.1.128-.155.086-.206v-.2l-.066-.239-.127-.231-.195-.151-.309-.107.014-.059.224.028h.745l.291.082.3.137.206.136.184.193.143.228.066.323v.216l.029-.1v-.293l-.065-.283-.133-.238-.2-.21-.239-.182-.6-.24-.309-.025h-.715l-.344-.082-.27-.108-.274-.192-.229-.218-.164-.2-.112-.3-.112-.267-.219-.316.044-.041.222.189.182.19.219.157.325.134.31.024.372-.025.237-.08.22-.16.242-.288.014-.025-.1.093-.206.112-.252.083-.28.029h0l-.658-.111-.248-.133-.281-.227-.179-.3-.158-.271-.112-.353.057-.021.11.269.153.209.216.207.047.012-.133-.1-.112-.191-.112-.216-.16-.486.056-.024.158.293.174.236.175.13.193.1h.209l.144-.076.013-.014-.1.014h-.19l-.006,0-.213-.115-.135-.186-.118-.287v-.351l.044-.272.022-.321.06,0,.065.345.154.235.2.238.251.279.133.35.057.119.063-.192-.043-.232-.133-.318.052-.032.209.251.11.269.066.25.012-.188v-.262l-.09-.265-.093-.377.212.212.181.218.137.19.092.193.122.365.043-.171v-.318l-.067-.261-.108-.207-.23-.412.3.162.113.135.137.217.125.3.04-.013-.043-.323-.065-.262-.132-.238-.1-.229.221.076.168.09.1.1-.083-.173-.245-.343-.158-.3-.269-.644-.463-.554-.2-.087.007-.025.092-.351.065-.321V506l.007-.072.084-.236.044-.342.024-.346.023,0,.907-.138.362-.4.447-.23.184-.278.236.051.3-.274.153.339.172.143h.209l.186-.209.182.049.183-.3h.331l.22-.195.279-.26.235-.156.327-.358v.422l.207.186.254-.047.176-.194.138-.354.138-.46.059.005.046.411.092.3.177.293.209.093.21-.092.087-.245.092-.356h.058l.1.41.137.41.279.715.077.175.144-.079.091-.4.044-.611-.046-.561-.047-.513-.139-.4-.18-.3-.233-.359c-.049-.085-.089-.167-.129-.247a1.23,1.23,0,0,0-.234-.369,2,2,0,0,0-1.119-.5h-.019a.772.772,0,0,0-.755.493c-.013.041-.029.126-.046.224-.071.38-.145.726-.282.783-.193.084-.5-.069-.7-.227l-.042-.034c-.183-.143-.372-.291-.6-.144-.1.065-.132.307-.165.564-.051.385-.107.82-.407.951-.091.039-.21-.017-.325-.072a.6.6,0,0,0-.2-.071h-.006a1.111,1.111,0,0,0-.263.11c-.235.115-.532.259-.7.206a2.1,2.1,0,0,1-.718-.65,1.7,1.7,0,0,0-.349-.308l-.051-.038-.228-.216-.139-.22-.027-.066a1.974,1.974,0,0,1-.216-.9c-.005-.1.005-.278.017-.479a6.546,6.546,0,0,0,.017-.837c-.033-.355-.11-.828-.136-.983l0-.012a.621.621,0,0,0-.018-.074.736.736,0,0,1-.034-.288l-.2-.259-.048-.049a.363.363,0,0,1-.057-.042.636.636,0,0,0-.069-.053l-.108-.083-.075-.051a4.566,4.566,0,0,0-.681-.266l-.135-.045-.108-.02-.266-.028-.271-.053h-.437l-.143.048-.084.126-.057.141.144.174.115.191.135.214.145.265.156.355.122.248.1.141.126.289v.286l-.228.158-.254.023-.058-.01.178.2.177.162.122.143v.263l-.067.241-.092.193-.088.238-.023.191a.5.5,0,0,1-.146.14,3.139,3.139,0,0,0-.274.229,1.106,1.106,0,0,0-.266.4.7.7,0,0,1-.083.152.516.516,0,0,1-.21.128.482.482,0,0,0-.143.079.757.757,0,0,0-.09.137c-.063.108-.127.221-.212.242a2.559,2.559,0,0,1-.77-.229l-.037-.014a.3.3,0,0,0-.374.05l-.036.024a.179.179,0,0,1-.145.022,1.112,1.112,0,0,1-.508-.461,1.157,1.157,0,0,1-.062-.455,1.214,1.214,0,0,0-.091-.555.257.257,0,0,0-.181-.1.559.559,0,0,0-.385.111c-.086.068-.535.4-.849.333-.176-.037-.243-.351-.312-.682a1.425,1.425,0,0,0-.177-.538c-.176-.181-.374-.388-.993-.214a1.48,1.48,0,0,0-.918.688l-.188.359-.231.363-.184.3-.138.407-.046.506-.044.564.044.611.092.392.143.081.079-.175.278-.717.138-.411.092-.406h.059l.093.359.086.243.21.091.209-.093.181-.3.089-.3.046-.406.059-.005.14.463.135.35.176.2.253.045.21-.184v-.423l.332.362.225.151.281.26.224.2h.332l.008.015.172.288.183-.049.186.209h.208l.173-.144.153-.339.3.275.237-.054.183.279.458.235.353.393.556.117.033.024-.024.115.021.236.046.3.068.215-.023.142.022.233.031.118.018.046,0,.008-.048.189v.235l-.026.23-.111.189-.115.139-.159.163-.153.212-.109.262-.068.214-.023.291h-.312l-.279.1-.122.147v.028l.011-.032.166-.111.168-.062.375.038-.325.178-.041.079.022-.018.145-.087h.163l.288-.044-.286.229-.175.261-.084.283.028.064.021-.1.094-.229.128-.091.19-.053h.15l.264-.07-.12.247-.113.192-.145.146-.124.065.065.012.146-.025.149-.077.177-.158.049.035-.091.213-.042.185-.1.228-.115.12.11.015.165-.1.155-.211.179-.215.05.032-.113.243-.063.211-.123.256-.254.217-.147.06.031.018h.194l.2-.025.2-.054.214-.079.131-.129.273-.215-.067.271-.1.22.026-.031.087-.131.175-.387.038.268v0l-.046.244-.044.191-.1.2-.157.16-.113.11-.184.11-.25.084-.569.056-.376-.031-.226-.135-.113-.04.04.049.113.162.155.158.171.13.2.076.242.028.217-.028.242-.027.2-.077.148-.1.224-.268.03.374v.005l-.069.215-.067.19-.093.167-.159.192-.393.357-.4.161-.248.084-.253.027-.582.054h-.271l-.242.055-.195.051-.221.132-.173.128-.109.158-.084.154-.022.235.022.177.085.208.1.1.129.052.021,0-.1-.061-.072-.182v-.162l.024-.2.1-.2.19-.168.225-.082.256-.055h.005l.2.028h.375l-.267.16-.129.178-.064.259.021.2.1.15.169.125h.125l-.143-.177-.047-.2,0-.006.051-.229.144-.169.19-.083.247-.026.261-.081.221-.1.314-.081.444-.32.22-.212.154-.212.2-.32.056.018-.021.322,0,.281-.112.241-.117.224-.381.4-.182.164-.155.159-.194.143-.225.055h-.232l-.2-.028-.168-.049.1.1.369.182.237-.025.286-.079.2-.1.2-.16.2-.133.2-.238.179-.189.049.035-.061.126.021.2-.048.528-.093.25-.123.142-.164.085-.119-.013.053.032h.195l.146-.026Zm1.549-4.5h.171l.21-.029-.124-.326-.242-.266-.2-.241-.163-.255-.022-.118-.006.087-.044.271v.339l.109.265.127.174Z" transform="translate(-63.412 -455.453)" fill="#1a1818"/>
        <path id="Tracé_154" data-name="Tracé 154" d="M195.326,497.767c.067,0,.085.037.085-.041a.121.121,0,1,0-.239,0c0,.078.089.041.155.041" transform="translate(-62.963 -455.408)" fill="#1a1818"/>
        <path id="Tracé_155" data-name="Tracé 155" d="M195.62,471.715a8.29,8.29,0,0,1,.09,1.769c-.037.324.09,1.273-1,1.147a1.2,1.2,0,0,0,.214-1.11,4.357,4.357,0,0,0-.537-1.663,4.152,4.152,0,0,0-.358-.376s.055.268.125.592a1.934,1.934,0,0,1-.07,1.036.985.985,0,0,1-.914.34.892.892,0,0,0,.394-.913,3.8,3.8,0,0,0-.877-1.807c.411-.18,1.951.34,1.951.34Z" transform="translate(-63.11 -457.004)" fill="#dc091d"/>
        <path id="Tracé_156" data-name="Tracé 156" d="M194.9,474.67a1.688,1.688,0,0,1-.189-.011.027.027,0,0,1-.018-.041,1.076,1.076,0,0,0,.222-.984l-.012-.108a4.4,4.4,0,0,0-.532-1.648c-.139-.16-.239-.263-.3-.32.021.1.063.3.109.513a1.949,1.949,0,0,1-.074,1.056,1.018,1.018,0,0,1-.936.351.024.024,0,0,1-.022-.017.025.025,0,0,1,.007-.028.869.869,0,0,0,.386-.891,3.768,3.768,0,0,0-.872-1.794.025.025,0,0,1-.005-.022.023.023,0,0,1,.015-.018,5.155,5.155,0,0,1,1.969.34l.005,0,.984.645a.022.022,0,0,1,.012.017,8.26,8.26,0,0,1,.09,1.776c-.005.04-.006.092-.01.15a1.147,1.147,0,0,1-.282.858.819.819,0,0,1-.551.172m-.139-.057a.864.864,0,0,0,.657-.153,1.113,1.113,0,0,0,.264-.821c0-.06,0-.113.01-.156a8.216,8.216,0,0,0-.088-1.751l-.971-.637a5.551,5.551,0,0,0-1.9-.353,3.793,3.793,0,0,1,.859,1.795.889.889,0,0,1-.356.892h.044a.927.927,0,0,0,.786-.333,1.938,1.938,0,0,0,.066-1.016c-.07-.324-.126-.592-.126-.592a.027.027,0,0,1,.012-.027.025.025,0,0,1,.03,0,4.234,4.234,0,0,1,.361.379,4.345,4.345,0,0,1,.543,1.677l.013.107a1.124,1.124,0,0,1-.205.985" transform="translate(-63.112 -457.005)" fill="#1a1818"/>
        <path id="Tracé_157" data-name="Tracé 157" d="M200.8,478.41a3.691,3.691,0,0,1,.994-.359.8.8,0,0,1,.689.62c.189-.333.26-.995.565-1.244a1.682,1.682,0,0,1,1.3-.1,3.175,3.175,0,0,1-1.422-1.469c-.457-.815-.885-1.352-1.012-1.644s-.063.5-.063.5l-.377,1.3-.589,1.96Z" transform="translate(-62.628 -456.799)" fill="#dc091d"/>
        <path id="Tracé_158" data-name="Tracé 158" d="M202.486,478.7h0a.025.025,0,0,1-.021-.021.788.788,0,0,0-.653-.6H201.8a2.7,2.7,0,0,0-.795.273c-.066.03-.129.058-.19.084a.026.026,0,0,1-.027,0,.027.027,0,0,1-.008-.024l.082-.439.59-1.963.375-1.293c-.043-.568.013-.582.034-.587h.01c.03,0,.051.039.069.082a4.736,4.736,0,0,0,.35.577c.188.282.42.634.661,1.066a3.177,3.177,0,0,0,1.41,1.459.025.025,0,0,1,.013.031.024.024,0,0,1-.03.017,1.713,1.713,0,0,0-1.274.092,1.63,1.63,0,0,0-.374.754,2.684,2.684,0,0,1-.184.483.029.029,0,0,1-.022.013m-.679-.671a.84.84,0,0,1,.689.571,3.313,3.313,0,0,0,.148-.411,1.657,1.657,0,0,1,.39-.779,1.535,1.535,0,0,1,1.143-.139,3.314,3.314,0,0,1-1.273-1.4c-.242-.43-.472-.781-.659-1.063a4.783,4.783,0,0,1-.355-.585c-.007-.018-.014-.03-.018-.038a2.726,2.726,0,0,0,.005.525v.008l-.377,1.3-.59,1.96-.072.389.145-.065a2.7,2.7,0,0,1,.814-.277Z" transform="translate(-62.63 -456.8)" fill="#1a1818"/>
        <path id="Tracé_159" data-name="Tracé 159" d="M197.481,475.358c-.412.8-.912,2.791-1.771,3.4s-1.073.806-1.808.879c.592.142,1.521.25,1.361.555s-.108.213-.108.213.34-.055.411.018a1.338,1.338,0,0,1,.18.61c0,.178-.126.5.179.215a14.911,14.911,0,0,0,1.681-3.26c.018-.393-.125-2.629-.125-2.629" transform="translate(-63.038 -456.727)" fill="#dc091d"/>
        <path id="Tracé_160" data-name="Tracé 160" d="M195.756,481.387a.057.057,0,0,1-.026-.006c-.048-.025-.037-.107-.022-.212a1.089,1.089,0,0,0,.014-.136,1.346,1.346,0,0,0-.173-.592c-.043-.044-.25-.032-.378-.013-.008.011-.019.022-.037.012s-.024-.015.107-.259a.1.1,0,0,0,.006-.1c-.074-.156-.548-.254-.966-.34-.137-.029-.266-.055-.385-.084a.025.025,0,0,1-.019-.026.024.024,0,0,1,.022-.023,2.751,2.751,0,0,0,1.589-.726c.065-.047.133-.1.208-.148a5.791,5.791,0,0,0,1.374-2.45c.144-.378.269-.7.389-.94a.027.027,0,0,1,.028-.014.026.026,0,0,1,.02.024c.006.091.144,2.242.126,2.631a14.527,14.527,0,0,1-1.69,3.277c-.089.084-.146.121-.186.121m-.37-1.028a.307.307,0,0,1,.2.046,1.356,1.356,0,0,1,.186.628,1,1,0,0,1-.014.143c-.006.049-.02.15,0,.159s.029.012.155-.106a15.034,15.034,0,0,0,1.674-3.242c.016-.341-.092-2.1-.12-2.531-.106.224-.217.516-.344.849a5.818,5.818,0,0,1-1.392,2.474l-.208.148a2.882,2.882,0,0,1-1.466.717l.238.051c.451.092.918.189,1,.368a.152.152,0,0,1-.006.141c-.046.085-.073.138-.09.17a1.52,1.52,0,0,1,.191-.014" transform="translate(-63.039 -456.728)" fill="#1a1818"/>
        <path id="Tracé_161" data-name="Tracé 161" d="M201.039,478.483a28.562,28.562,0,0,0-.644,4.492,8.559,8.559,0,0,0,.679,3.687c.161.341-.216.322-.357.072a10.259,10.259,0,0,0-.966-2.362c-.431-.4-.9-.448-.9.017s-.376.411-.446-.054-.085-1-1.485-.823a2.585,2.585,0,0,0-1.163.431Z" transform="translate(-62.928 -456.541)" fill="#dc091d"/>
        <path id="Tracé_162" data-name="Tracé 162" d="M201,486.946a.376.376,0,0,1-.3-.2,4.617,4.617,0,0,1-.206-.592,5.429,5.429,0,0,0-.755-1.764c-.265-.243-.551-.357-.714-.286a.281.281,0,0,0-.14.284c0,.247-.1.341-.193.349-.119.008-.263-.125-.3-.4l-.008-.062c-.067-.444-.136-.9-1.448-.739a2.592,2.592,0,0,0-1.15.426.026.026,0,0,1-.034-.038l5.279-5.458a.025.025,0,0,1,.03-.005.025.025,0,0,1,.014.025c-.053.491-.163,1.02-.281,1.581a11.878,11.878,0,0,0-.363,2.908l.01.195a8.123,8.123,0,0,0,.667,3.481c.09.192.012.258-.027.278a.152.152,0,0,1-.074.017m-1.867-2.913a1.059,1.059,0,0,1,.639.32,5.333,5.333,0,0,1,.769,1.787,4.515,4.515,0,0,0,.2.582c.078.138.233.2.308.163.053-.028.054-.1,0-.211a8.163,8.163,0,0,1-.672-3.5l-.01-.2a11.911,11.911,0,0,1,.364-2.921c.11-.531.216-1.034.272-1.5l-5.082,5.253a2.787,2.787,0,0,1,1-.323c1.362-.172,1.439.337,1.5.783l.01.063c.035.233.149.355.242.355h.008c.088-.006.145-.123.145-.3a.32.32,0,0,1,.169-.331.33.33,0,0,1,.131-.025" transform="translate(-62.929 -456.543)" fill="#1a1818"/>
        <path id="Tracé_163" data-name="Tracé 163" d="M192.718,483.348c1.528-.453,5.153-1.621,4.986-5.63s-1.384-5.3-3.219-6.3a3.672,3.672,0,0,0-1.528-.336l-.239-.31s-.406-.166-1.146-.4a6.684,6.684,0,0,0-2.314-.132c-.31.049-.38-.192-.07-.336a10.7,10.7,0,0,1,3.028-.011c.025-.334-.667-.739-1.525-.881s-2.147-.145-2.435-.525-.475-.62-.237-.716,1.216.478,1.55.335a3.643,3.643,0,0,0,.98-.454,1.01,1.01,0,0,1-.263-1.265c.214-.452,1.1-1.361,3.437-.954a15.266,15.266,0,0,1,7.014,4.2c1.122,1.407,2.48,2.958,2,6.037a10.57,10.57,0,0,1-3.6,6.679,48.15,48.15,0,0,0-3.769,3.676l-.334-2.1Z" transform="translate(-63.393 -457.322)" fill="#003d6f"/>
        <path id="Tracé_164" data-name="Tracé 164" d="M195.369,486.049h-.007a.025.025,0,0,1-.018-.02l-.332-2.085-2.3-.568a.026.026,0,0,1,0-.05,9.246,9.246,0,0,0,3.121-1.477,4.74,4.74,0,0,0,1.849-4.128c-.161-3.875-1.3-5.236-3.207-6.277a3.677,3.677,0,0,0-1.488-.332h-.026a.027.027,0,0,1-.02-.011l-.236-.305c-.054-.021-.456-.182-1.137-.4a6.665,6.665,0,0,0-2.3-.131c-.149.024-.267-.018-.295-.108-.022-.072.019-.187.21-.275a11.262,11.262,0,0,1,3.014-.024c-.028-.314-.709-.689-1.505-.82-.242-.04-.522-.071-.794-.1-.709-.075-1.442-.154-1.656-.435l-.035-.047c-.2-.269-.345-.464-.309-.594a.18.18,0,0,1,.119-.114,1.353,1.353,0,0,1,.669.153,1.686,1.686,0,0,0,.879.182c.1-.042.2-.078.3-.113a2.218,2.218,0,0,0,.654-.319,1.028,1.028,0,0,1-.248-1.274c.07-.148.762-1.439,3.464-.968a15.422,15.422,0,0,1,7.03,4.21l.129.162a6.753,6.753,0,0,1,1.879,5.894,10.546,10.546,0,0,1-3.611,6.7,48.436,48.436,0,0,0-3.767,3.673.026.026,0,0,1-.018.008m-2.553-2.7,2.225.55a.027.027,0,0,1,.019.02l.325,2.05a47.635,47.635,0,0,1,3.736-3.639,10.486,10.486,0,0,0,3.593-6.663,6.708,6.708,0,0,0-1.869-5.855l-.129-.162a15.351,15.351,0,0,0-7-4.192,4.449,4.449,0,0,0-2.5.154,1.715,1.715,0,0,0-.908.787.984.984,0,0,0,.257,1.235.024.024,0,0,1,.007.02.023.023,0,0,1-.008.018,2.214,2.214,0,0,1-.691.345c-.1.035-.2.071-.3.112a1.638,1.638,0,0,1-.917-.181,1.461,1.461,0,0,0-.632-.153.134.134,0,0,0-.089.08c-.03.107.117.3.3.55l.035.047c.2.264.923.341,1.622.415.272.03.554.059.8.1.865.142,1.575.558,1.548.908a.026.026,0,0,1-.013.02.028.028,0,0,1-.024,0,10.709,10.709,0,0,0-3.006.011c-.15.07-.2.159-.182.215s.1.093.238.072a6.726,6.726,0,0,1,2.326.134c.732.235,1.143.4,1.146.4a.021.021,0,0,1,.011.009l.233.3h.014a3.722,3.722,0,0,1,1.512.338c1.926,1.049,3.072,2.42,3.234,6.319a4.788,4.788,0,0,1-1.868,4.171,9.137,9.137,0,0,1-3.048,1.459" transform="translate(-63.395 -457.324)" fill="#1a1818"/>
        <path id="Tracé_165" data-name="Tracé 165" d="M190.405,467.537l0-.051.379-.014,0,.051Z" transform="translate(-63.246 -457.195)" fill="#1a1818"/>
        <path id="Tracé_166" data-name="Tracé 166" d="M192.157,467.811a.171.171,0,0,0,.178.159.164.164,0,0,0,.167-.167.17.17,0,0,0-.178-.157.168.168,0,0,0-.167.165" transform="translate(-63.141 -457.185)" fill="#1a1818"/>
        <path id="Tracé_167" data-name="Tracé 167" d="M197.855,480.868c-2.221,1.424-4.937,2.61-7.729-.073-1.767-1.693-1.385-1.739-1.959-1.788s-.978.143-1.074.358a1.409,1.409,0,0,1,1.529.525c.478.692.644,1.431.382,1.645s-.073-.144-.311.024-.071.431.334.762.478.194.622.289.523.953.764,1.121a5.157,5.157,0,0,0,4.534-.286,7.362,7.362,0,0,1-4.415,1.74c1.193.383,1.815.478,2.338,1.074s.071,1.05.549,1.05.1-.431.31-.431a1.636,1.636,0,0,1,1.146.766c.214.476.476,1.549,1.527,1.788s1.311-.214,1.359-.43c-.5-.021-.548.526-1.311-.094s-1.55-2.267-.358-4.318,2.173-2.838,2.244-3.532a2.61,2.61,0,0,1-.67.333Z" transform="translate(-63.442 -456.511)" fill="#dc091d"/>
        <path id="Tracé_168" data-name="Tracé 168" d="M196.943,489.528a2.463,2.463,0,0,1-.548-.07,2.172,2.172,0,0,1-1.447-1.567c-.034-.087-.067-.168-.1-.236a1.625,1.625,0,0,0-1.123-.75.048.048,0,0,0-.037.012c-.015.017-.008.066,0,.111a.282.282,0,0,1-.033.233.3.3,0,0,1-.239.075c-.262,0-.27-.136-.282-.322a1.091,1.091,0,0,0-.285-.736,3.315,3.315,0,0,0-1.744-.886c-.175-.054-.372-.113-.584-.181a.026.026,0,0,1-.018-.028.025.025,0,0,1,.023-.022,7.066,7.066,0,0,0,3.985-1.434,5.329,5.329,0,0,1-4.117.026,2.674,2.674,0,0,1-.475-.683,2.06,2.06,0,0,0-.288-.437.236.236,0,0,0-.127-.038.845.845,0,0,1-.5-.253c-.309-.252-.458-.449-.451-.6a.247.247,0,0,1,.119-.2c.061-.043.1-.058.135-.049a.086.086,0,0,1,.05.063c0,.012.011.026.016.027s.029,0,.11-.065c.252-.206.074-.944-.387-1.612a1.258,1.258,0,0,0-1.344-.525c-.055,0-.109.01-.162.012-.011,0-.017,0-.022-.011a.03.03,0,0,1,0-.025c.1-.221.512-.422,1.1-.372.332.027.359.06.625.374a16.853,16.853,0,0,0,1.349,1.421c2.754,2.645,5.437,1.519,7.7.07a.025.025,0,0,1,.03,0,.025.025,0,0,1,.007.029l-.173.475a2.9,2.9,0,0,0,.614-.315.024.024,0,0,1,.026,0,.025.025,0,0,1,.012.024,3.327,3.327,0,0,1-.787,1.377,20.644,20.644,0,0,0-1.459,2.165c-.636,1.092-1.066,3.134.351,4.285.49.4.673.306.882.2a.821.821,0,0,1,.386-.111c.017,0,.038,0,.049.01a.025.025,0,0,1,0,.021.61.61,0,0,1-.275.379,1.045,1.045,0,0,1-.567.14m-3.214-2.674a1.657,1.657,0,0,1,1.17.781c.03.069.062.15.1.237a2.134,2.134,0,0,0,1.411,1.537,1.431,1.431,0,0,0,1.075-.065.565.565,0,0,0,.246-.316.766.766,0,0,0-.358.106c-.217.109-.422.213-.936-.206a3.352,3.352,0,0,1-.364-4.351,20.973,20.973,0,0,1,1.462-2.171,3.65,3.65,0,0,0,.771-1.3,2.465,2.465,0,0,1-.631.306.022.022,0,0,1-.024-.007.025.025,0,0,1-.005-.025l.165-.452c-2.265,1.441-4.944,2.528-7.7-.118a16.9,16.9,0,0,1-1.353-1.423c-.264-.312-.28-.332-.59-.358-.058,0-.114-.006-.169-.006a1.047,1.047,0,0,0-.858.311l.114-.01a1.312,1.312,0,0,1,1.39.548c.484.7.654,1.455.378,1.68-.075.063-.122.085-.157.075a.081.081,0,0,1-.05-.06c-.005-.014-.011-.029-.018-.031s-.023-.005-.089.041a.2.2,0,0,0-.1.158c-.005.135.141.324.433.563a.8.8,0,0,0,.47.242.3.3,0,0,1,.149.047,1.907,1.907,0,0,1,.3.454,2.643,2.643,0,0,0,.46.666,5.149,5.149,0,0,0,4.505-.286.026.026,0,0,1,.03.042,7.317,7.317,0,0,1-4.307,1.732c.168.053.325.1.467.143a3.348,3.348,0,0,1,1.766.9,1.13,1.13,0,0,1,.3.767c.013.189.018.274.231.274a.267.267,0,0,0,.2-.058.244.244,0,0,0,.021-.192c-.01-.06-.017-.118.014-.153a.093.093,0,0,1,.075-.029" transform="translate(-63.443 -456.512)" fill="#1a1818"/>
        <path id="Tracé_169" data-name="Tracé 169" d="M190.641,467.225a2.548,2.548,0,0,0,.519.2,16.534,16.534,0,0,1,1.772-.358c.508-.008,1.234.44,1.6,1.49.123-.866-.066-1.025-.3-1.285a1.443,1.443,0,0,0-.924-.43c.163-.141.567-.126.693-.133a2.923,2.923,0,0,0-1.693.007,3.96,3.96,0,0,0-1.081.539c-.09,0-.584-.029-.584-.029" transform="translate(-63.231 -457.248)" fill="#dc091d"/>
        <path id="Tracé_170" data-name="Tracé 170" d="M194.529,468.582a.026.026,0,0,1-.024-.018c-.35-1.015-1.048-1.473-1.556-1.473h-.014a7.816,7.816,0,0,0-1.352.264,3.306,3.306,0,0,1-.418.094h-.006a.715.715,0,0,1-.226-.075c-.068-.029-.161-.069-.3-.124a.028.028,0,0,1-.016-.03.026.026,0,0,1,.025-.02h0c.005,0,.495.028.583.029h0a.4.4,0,0,0,.121-.074,2.787,2.787,0,0,1,.951-.464,2.968,2.968,0,0,1,1.707-.007.025.025,0,0,1,.018.028.024.024,0,0,1-.023.022l-.075,0a1.444,1.444,0,0,0-.542.085,1.5,1.5,0,0,1,.865.433l.032.035c.219.243.392.434.274,1.271a.026.026,0,0,1-.023.021h0m-1.581-1.542a1.915,1.915,0,0,1,1.569,1.409c.088-.726-.066-.9-.274-1.126l-.033-.035a1.421,1.421,0,0,0-.9-.422.024.024,0,0,1-.023-.017.025.025,0,0,1,.007-.028.963.963,0,0,1,.534-.135,2.936,2.936,0,0,0-1.511.052,2.743,2.743,0,0,0-.935.457c-.074.054-.115.085-.15.085h0c-.058,0-.28-.013-.433-.021l.161.068a.705.705,0,0,0,.211.071h0c.037,0,.215-.046.4-.093a7.835,7.835,0,0,1,1.362-.265Z" transform="translate(-63.233 -457.249)" fill="#1a1818"/>
        <path id="Tracé_171" data-name="Tracé 171" d="M192.01,465.382c.43-.034,2.46.119,3.285-.994a1.129,1.129,0,0,1-.619.887,6.443,6.443,0,0,0,1.691-.035,2.465,2.465,0,0,0,1.589-.9c-.067.591-.479.77-.738.993s-.305.447-.9.458c.609.133,1.36.429,1.9.511a2.936,2.936,0,0,0,2.5-.654,1.429,1.429,0,0,1-1.143,1.182,4.588,4.588,0,0,1-1.1.239c.457.466.978,1.048,1.665,1.7s1.744,1.718,3.255.77a1.237,1.237,0,0,1-1.5.725,5.137,5.137,0,0,1-1.843-.555,1.7,1.7,0,0,1-.814-1.037,4.051,4.051,0,0,0,.508,1.475,3.162,3.162,0,0,1-.986-1.091,1.861,1.861,0,0,1-.571.433c.062-.281.278-.584-.015-1a11.19,11.19,0,0,0-.985-1.046,2.87,2.87,0,0,1,.186,1.145,3.732,3.732,0,0,1-.547.778c.065-.3.136-.626.136-.626a3.909,3.909,0,0,1-.429.672,1.675,1.675,0,0,1-1.252.294c.679-.294,1.18-.546,1.109-1.3a2.355,2.355,0,0,0-.9-1.832,4.293,4.293,0,0,0-1.787-.913c-.475-.09-1.085-.09-1.315-.16l-.377-.119" transform="translate(-63.15 -457.381)" fill="#dc091d"/>
        <path id="Tracé_172" data-name="Tracé 172" d="M202.214,470.309a2.407,2.407,0,0,1-.329-.024,5.088,5.088,0,0,1-1.852-.558,1.5,1.5,0,0,1-.716-.8,3.248,3.248,0,0,0,.44,1.2.026.026,0,0,1,.006.033.022.022,0,0,1-.032.011,3.227,3.227,0,0,1-.986-1.072c-.047.041-.092.084-.136.125a1.112,1.112,0,0,1-.418.291.028.028,0,0,1-.024-.006.026.026,0,0,1-.007-.024,1.687,1.687,0,0,1,.054-.183.767.767,0,0,0-.065-.792,6.614,6.614,0,0,0-.752-.813l-.165-.161c.015.058.03.115.043.172a1.857,1.857,0,0,1,.119.9,3.729,3.729,0,0,1-.551.786.026.026,0,0,1-.031,0,.026.026,0,0,1-.013-.027c.035-.163.071-.332.1-.452a2.618,2.618,0,0,1-.349.522,1.531,1.531,0,0,1-1.117.3l-.153,0a.026.026,0,0,1-.01-.05,2.815,2.815,0,0,0,.828-.473.908.908,0,0,0,.265-.8,2.323,2.323,0,0,0-.887-1.815,4.34,4.34,0,0,0-1.777-.908,7.393,7.393,0,0,0-.748-.088,3.361,3.361,0,0,1-.569-.073l-.378-.119a.025.025,0,0,1-.018-.026.027.027,0,0,1,.023-.023c.061,0,.153-.005.267-.007.688-.008,2.3-.029,3-.976a.025.025,0,0,1,.029-.008.027.027,0,0,1,.017.025,1.112,1.112,0,0,1-.57.868,6.449,6.449,0,0,0,1.612-.042,2.465,2.465,0,0,0,1.571-.892.024.024,0,0,1,.03-.013.025.025,0,0,1,.018.028,1.191,1.191,0,0,1-.588.886c-.056.042-.11.083-.159.124s-.1.1-.147.144a.815.815,0,0,1-.6.308c.221.057.458.129.689.2a7.9,7.9,0,0,0,1.038.271,2.865,2.865,0,0,0,2.482-.646.026.026,0,0,1,.032,0,.027.027,0,0,1,.011.03,1.446,1.446,0,0,1-1.161,1.2l-.411.111a2.73,2.73,0,0,1-.639.127c.128.131.262.272.4.421.35.369.747.787,1.222,1.238l.053.051c.682.648,1.715,1.629,3.171.716a.025.025,0,0,1,.03,0,.027.027,0,0,1,.008.029,1.158,1.158,0,0,1-1.2.766m-2.982-1.667a.025.025,0,0,1,.023.015l.04.092a1.582,1.582,0,0,0,.763.934,5.039,5.039,0,0,0,1.834.551c.951.137,1.316-.312,1.449-.639-1.456.868-2.485-.111-3.17-.761l-.053-.051c-.478-.452-.874-.871-1.225-1.24-.156-.163-.3-.318-.442-.461a.023.023,0,0,1-.005-.026.027.027,0,0,1,.022-.017,2.52,2.52,0,0,0,.684-.128c.108-.03.24-.066.412-.11a1.374,1.374,0,0,0,1.1-1.074,2.858,2.858,0,0,1-2.455.6,7.956,7.956,0,0,1-1.048-.273c-.288-.088-.586-.179-.852-.238a.025.025,0,0,1,0-.05.833.833,0,0,0,.737-.3,2,2,0,0,1,.15-.147c.051-.043.1-.084.162-.127a1.186,1.186,0,0,0,.548-.725,2.694,2.694,0,0,1-1.539.807,6.458,6.458,0,0,1-1.7.035.026.026,0,0,1-.022-.02.026.026,0,0,1,.012-.027,1.139,1.139,0,0,0,.6-.78c-.743.9-2.307.918-2.985.928h-.118l.237.074a3.447,3.447,0,0,0,.558.071,7.53,7.53,0,0,1,.753.088,4.388,4.388,0,0,1,1.8.92,2.364,2.364,0,0,1,.907,1.849c.068.712-.354.983-1.018,1.279h.037a1.479,1.479,0,0,0,1.082-.291,3.783,3.783,0,0,0,.423-.664.025.025,0,0,1,.032-.012.024.024,0,0,1,.016.029s-.057.262-.115.537a3.787,3.787,0,0,0,.479-.7,1.918,1.918,0,0,0-.121-.863c-.022-.086-.044-.175-.067-.266a.025.025,0,0,1,.013-.029.026.026,0,0,1,.031.005c.049.055.132.136.23.229a6.67,6.67,0,0,1,.757.82.819.819,0,0,1,.071.839c-.015.046-.03.09-.041.132a1.206,1.206,0,0,0,.355-.265c.052-.049.106-.1.164-.148a.025.025,0,0,1,.04.011,3.382,3.382,0,0,0,.853,1,6.364,6.364,0,0,1-.424-1.371.025.025,0,0,1,.017-.03h.007" transform="translate(-63.152 -457.383)" fill="#1a1818"/>
        <path id="Tracé_173" data-name="Tracé 173" d="M196.1,465.732c-.2-.017-.532-.035-.535-.036l0-.05s.333.018.536.035Z" transform="translate(-62.939 -457.303)" fill="#1a1818"/>
        <path id="Tracé_174" data-name="Tracé 174" d="M194.04,465.31l-.005-.051c.172-.016.326-.035.518-.063l.007.051c-.193.028-.349.047-.52.063" transform="translate(-63.03 -457.33)" fill="#1a1818"/>
        <path id="Tracé_175" data-name="Tracé 175" d="M105.436,499.689h1.349c1.323,0,2.367.68,2.367,1.917a1.931,1.931,0,0,1-2.061,1.95,3.787,3.787,0,0,1-.441-.016V502.9a1.987,1.987,0,0,0,.322.018,1.249,1.249,0,0,0,1.357-1.256c0-.881-.653-1.281-1.628-1.281h-.466v5.336h-.8Z" transform="translate(-68.288 -455.283)" fill="#1a1818"/>
        <path id="Tracé_176" data-name="Tracé 176" d="M112.483,504.448l-.637-1.086h-1.178v2.35h-.8v-6.022h1.374c1.391,0,2.384.6,2.384,1.816a1.649,1.649,0,0,1-1.01,1.586l.576.967c.543.891.832,1.035,1.316,1.1l-.086.576c-.958-.025-1.28-.153-1.942-1.289m-1.34-4.1h-.475v2.384s.466.017.941.017a1.119,1.119,0,0,0,1.188-1.179c0-.874-.695-1.221-1.654-1.221" transform="translate(-68.025 -455.283)" fill="#1a1818"/>
        <path id="Tracé_177" data-name="Tracé 177" d="M117.624,505.81a3.012,3.012,0,0,1-3.078-3.18,2.972,2.972,0,0,1,3.18-3.028,2.912,2.912,0,0,1,3.138,3.019,3.041,3.041,0,0,1-3.239,3.189m.025-5.513a2.183,2.183,0,0,0-2.273,2.256,2.34,2.34,0,0,0,2.239,2.561h.076a2.41,2.41,0,0,0-.042-4.818" transform="translate(-67.747 -455.288)" fill="#1a1818"/>
        <path id="Tracé_178" data-name="Tracé 178" d="M123.006,505.72l-2.265-6.031h.865l1.874,5.174,1.833-5.174h.805l-2.2,6.014Z" transform="translate(-67.38 -455.283)" fill="#1a1818"/>
        <path id="Tracé_179" data-name="Tracé 179" d="M126.416,505.711v-6.022h3.232v.671h-2.434v1.959h2.247v.654h-2.247v2.06h2.638l-.059.679Z" transform="translate(-67.043 -455.283)" fill="#1a1818"/>
        <path id="Tracé_180" data-name="Tracé 180" d="M130.771,499.69h.865l3.528,4.809V499.69h.755v6.022h-.849l-3.545-4.852v4.852h-.755Z" transform="translate(-66.784 -455.283)" fill="#1a1818"/>
        <path id="Tracé_181" data-name="Tracé 181" d="M139.841,505.8a3.1,3.1,0,1,1,.008-6.192,4.776,4.776,0,0,1,1.857.357l-.068.695a5.151,5.151,0,0,0-1.815-.356,2.2,2.2,0,0,0-2.443,2.375,2.338,2.338,0,0,0,2.528,2.426,4.886,4.886,0,0,0,1.993-.467l-.051.721a4.8,4.8,0,0,1-2.01.441" transform="translate(-66.441 -455.288)" fill="#1a1818"/>
        <path id="Tracé_182" data-name="Tracé 182" d="M142.682,505.711v-6.022h3.231v.671h-2.433v1.959h2.247v.654h-2.247v2.06h2.638l-.059.679Z" transform="translate(-66.078 -455.283)" fill="#1a1818"/>
        <path id="Tracé_183" data-name="Tracé 183" d="M127.873,512.041H125.43l-.593,1.706h-.806l2.163-6.014.881-.017,2.316,6.031h-.874Zm-2.239-.636h2.011l-1.043-2.841Z" transform="translate(-67.184 -454.807)" fill="#1a1818"/>
        <path id="Tracé_184" data-name="Tracé 184" d="M129.866,513.746v-6.022h.8v5.343h2.621l-.059.679Z" transform="translate(-66.838 -454.806)" fill="#1a1818"/>
        <path id="Tracé_185" data-name="Tracé 185" d="M134.005,507.724h1.349c1.323,0,2.367.679,2.367,1.917a1.932,1.932,0,0,1-2.061,1.95,3.543,3.543,0,0,1-.441-.017v-.645a1.98,1.98,0,0,0,.322.018,1.249,1.249,0,0,0,1.357-1.256c0-.881-.653-1.281-1.628-1.281H134.8v5.336h-.8Z" transform="translate(-66.593 -454.806)" fill="#1a1818"/>
        <path id="Tracé_186" data-name="Tracé 186" d="M138.439,513.746v-6.022h3.232v.671h-2.434v1.959h2.247v.654h-2.247v2.06h2.638l-.059.679Z" transform="translate(-66.329 -454.806)" fill="#1a1818"/>
        <path id="Tracé_187" data-name="Tracé 187" d="M144.093,513.835a4.386,4.386,0,0,1-1.594-.288l-.017-.722a4.541,4.541,0,0,0,1.611.306c.976,0,1.272-.493,1.272-.967,0-.4-.153-.713-.942-1.069l-.475-.212c-1.018-.442-1.323-.942-1.315-1.637,0-.865.653-1.6,2.045-1.6a4.18,4.18,0,0,1,1.349.213l-.069.678a4.352,4.352,0,0,0-1.255-.212c-.89,0-1.229.373-1.229.857,0,.407.169.686.975,1.042l.476.2c1.025.424,1.322.983,1.322,1.662,0,.822-.576,1.747-2.154,1.747" transform="translate(-66.089 -454.811)" fill="#1a1818"/>
        <path id="Tracé_188" data-name="Tracé 188" d="M99.873,521.87a3.1,3.1,0,1,1,.008-6.192,4.781,4.781,0,0,1,1.858.357l-.069.7a5.146,5.146,0,0,0-1.815-.356,2.2,2.2,0,0,0-2.443,2.375,2.338,2.338,0,0,0,2.528,2.426,4.889,4.889,0,0,0,1.994-.467l-.051.721a4.806,4.806,0,0,1-2.011.441" transform="translate(-68.813 -454.334)" fill="#1a1818"/>
        <path id="Tracé_189" data-name="Tracé 189" d="M105.3,521.991a3.012,3.012,0,0,1-3.078-3.181,2.972,2.972,0,0,1,3.18-3.028,2.912,2.912,0,0,1,3.138,3.019,3.04,3.04,0,0,1-3.239,3.19m.025-5.514a2.183,2.183,0,0,0-2.273,2.256A2.34,2.34,0,0,0,105.3,521.3h.076a2.41,2.41,0,0,0-.042-4.818m-.034-1.967-1.154.9-.39-.416,1.586-1.221,1.527,1.188-.449.45Z" transform="translate(-68.478 -454.447)" fill="#1a1818"/>
        <path id="Tracé_190" data-name="Tracé 190" d="M111.111,516.437v5.343h-.788v-5.343h-1.917v-.679h4.682l-.051.679Z" transform="translate(-68.112 -454.329)" fill="#1a1818"/>
        <path id="Tracé_191" data-name="Tracé 191" d="M113.545,521.78v-6.022h3.232v.671h-2.434v1.959h2.247v.654h-2.247v2.06h2.638l-.059.679Z" transform="translate(-67.807 -454.329)" fill="#1a1818"/>
        <path id="Tracé_192" data-name="Tracé 192" d="M121.216,521.8c-.678,0-1.315,0-2.052-.017v-6.022c.627-.008,1.051-.008,1.942-.008,1.933,0,3.512.942,3.512,2.91,0,2.018-1.357,3.138-3.4,3.138m-.153-5.369c-.534,0-.8,0-1.1.008V521.1c.442.016.772.016,1.289.016a2.268,2.268,0,0,0,2.545-2.374c0-1.629-1.23-2.316-2.731-2.316" transform="translate(-67.473 -454.33)" fill="#1a1818"/>
        <path id="Tracé_193" data-name="Tracé 193" d="M125.1,517.8l-.449-.271a1.845,1.845,0,0,0,.593-1.171.88.88,0,0,0-.331-.645.553.553,0,0,1,.466-.3c.391,0,.611.381.6.781,0,.288-.068.78-.882,1.6" transform="translate(-67.147 -454.35)" fill="#1a1818"/>
        <path id="Tracé_194" data-name="Tracé 194" d="M129.305,520.076h-2.442l-.594,1.7h-.805l2.163-6.014.88-.017,2.316,6.031h-.874Zm-2.238-.637h2.01l-1.043-2.841Z" transform="translate(-67.099 -454.33)" fill="#1a1818"/>
        <path id="Tracé_195" data-name="Tracé 195" d="M130.851,521.78v-.594l3.18-4.749h-3.138v-.679h4.164v.543l-3.223,4.792h3.528l-.059.686Z" transform="translate(-66.78 -454.329)" fill="#1a1818"/>
        <path id="Tracé_196" data-name="Tracé 196" d="M138.368,521.874c-1.713,0-2.427-.9-2.427-2.731v-3.385h.8v3.291c0,1.34.406,2.129,1.7,2.129,1.18,0,1.637-.764,1.637-2.044v-3.376h.747v3.478c0,1.628-.8,2.638-2.459,2.638" transform="translate(-66.478 -454.329)" fill="#1a1818"/>
        <path id="Tracé_197" data-name="Tracé 197" d="M144.341,520.517l-.636-1.086h-1.179v2.35h-.8v-6.022H143.1c1.391,0,2.384.6,2.384,1.816a1.649,1.649,0,0,1-1.01,1.586l.577.967c.542.891.831,1.035,1.314,1.1l-.084.576c-.959-.025-1.282-.153-1.943-1.289m-1.34-4.1h-.475V518.8s.466.017.941.017a1.119,1.119,0,0,0,1.188-1.179c0-.874-.695-1.221-1.654-1.221" transform="translate(-66.134 -454.329)" fill="#1a1818"/>
        <path id="Tracé_198" data-name="Tracé 198" d="M76.988,473.4l-1.1-1.96H74.311v4.932H70.369V461.41H74.9c4.174,0,6.934,1.623,6.934,5.017a3.928,3.928,0,0,1-2.171,3.667l1.033,1.644c1.033,1.686,1.5,1.918,2.551,2.045l-.3,2.74c-3.71-.041-4.469-.294-5.966-3.12m-1.96-8.916h-.717V468.7s.717.042,1.476.042a1.824,1.824,0,0,0,1.982-2c0-1.6-1.118-2.255-2.741-2.255" transform="translate(-70.369 -457.555)" fill="#1a1818"/>
        <path id="Tracé_199" data-name="Tracé 199" d="M84.316,476.377V461.411h8.938v3.225h-5v2.614h4.617v3.161H88.258v2.7h5.628l-.232,3.267Z" transform="translate(-69.541 -457.555)" fill="#1a1818"/>
        <path id="Tracé_200" data-name="Tracé 200" d="M103.338,476.6c-5.27,0-8.537-2.53-8.537-7.758,0-4.89,3.457-7.63,8.558-7.63a17.011,17.011,0,0,1,4.511.654l-.337,3.2a15.821,15.821,0,0,0-4.174-.59c-2.845,0-4.491,1.35-4.491,4.153,0,3.078,1.75,4.723,4.237,4.723a5.631,5.631,0,0,0,1.454-.19v-3.984H108.5v4.6c0,1.054.042,1.917.042,1.917a17.9,17.9,0,0,1-5.207.907" transform="translate(-68.919 -457.567)" fill="#1a1818"/>
        <rect id="Rectangle_972" data-name="Rectangle 972" width="3.942" height="14.966" transform="translate(42.132 3.855)" fill="#1a1818"/>
        <path id="Tracé_201" data-name="Tracé 201" d="M123.516,476.6a7.43,7.43,0,0,1-7.864-7.841c0-4.659,3.268-7.547,8.1-7.547,4.743,0,7.841,2.888,7.841,7.356,0,4.786-3.182,8.032-8.073,8.032m-.042-12.142c-2.382,0-3.773,1.75-3.773,4.11,0,2.593,1.476,4.806,3.879,4.806h.126c2.509,0,3.837-2.044,3.837-4.574,0-2.613-1.5-4.342-4.069-4.342" transform="translate(-67.682 -457.566)" fill="#1a1818"/>
        <path id="Tracé_202" data-name="Tracé 202" d="M132.485,461.41h4.363l6.282,9.17v-9.17h3.752v14.966h-4.447l-6.2-9.149v9.149h-3.752Z" transform="translate(-66.683 -457.555)" fill="#1a1818"/>
        <path id="Tracé_203" data-name="Tracé 203" d="M110.69,495.394a14.841,14.841,0,0,1-4.406-.695l-.064-3.247a15.988,15.988,0,0,0,4.28.758c1.5,0,1.9-.653,1.9-1.265,0-.505-.19-.927-1.433-1.433l-.886-.358c-3.141-1.118-3.773-2.719-3.752-4.427.021-2.361,1.749-4.721,5.839-4.721a13.308,13.308,0,0,1,3.878.548l-.316,3.036a12.413,12.413,0,0,0-3.183-.485c-1.559,0-2,.569-2,1.222,0,.548.252.969,1.855,1.582l.886.337c2.888,1.033,3.5,2.613,3.5,4.28,0,2.044-1.328,4.869-6.092,4.869" transform="translate(-68.241 -456.451)" fill="#1a1818"/>
        <path id="Tracé_204" data-name="Tracé 204" d="M124.867,495.4c-4.806,0-6.787-2.383-6.787-7.209v-7.99h3.942v8.137c0,2.381.843,3.689,3.225,3.689,2,0,2.762-1.244,2.762-3.52v-8.305h3.773v7.926c0,4.68-2.255,7.272-6.914,7.272" transform="translate(-67.538 -456.439)" fill="#1a1818"/>
        <path id="Tracé_205" data-name="Tracé 205" d="M139.154,495.194c-1.917,0-3.225,0-5.754-.021V480.205h5.143c5.059,0,8.939,2.487,8.939,7.336,0,5.1-3.268,7.653-8.328,7.653M138.8,483.41c-.654,0-.969,0-1.454.021v8.495c.548.042,1.1.042,1.75.042,2.741,0,4.342-1.433,4.342-4.11,0-3.036-2.045-4.448-4.638-4.448" transform="translate(-66.628 -456.439)" fill="#1a1818"/>
        <path id="Tracé_206" data-name="Tracé 206" d="M93.251,460.426H84.289l8.962-2.656Z" transform="translate(-69.543 -457.771)" fill="#fc9c0a"/>
      </g>
    </g>
  </g>
</svg>
